<svg width="196" height="41" viewBox="0 0 196 41" fill="none" xmlns="http://www.w3.org/2000/svg">
<rect x="0.5" y="0.964783" width="195" height="40" rx="10" fill="#C70039"/>
<path d="M45.5251 27.0928C44.7357 27.0928 44.0424 26.9221 43.4451 26.5808C42.8477 26.2288 42.3837 25.7381 42.0531 25.1088C41.7224 24.4688 41.5571 23.7328 41.5571 22.9008V19.8288C41.5571 18.9968 41.7224 18.2661 42.0531 17.6368C42.3944 16.9968 42.8691 16.5061 43.4771 16.1648C44.0851 15.8128 44.7891 15.6368 45.5891 15.6368H47.2851C48.0424 15.6368 48.7144 15.8021 49.3011 16.1328C49.8877 16.4528 50.3411 16.9114 50.6611 17.5088C50.9811 18.0954 51.1411 18.7781 51.1411 19.5568H49.3011C49.3011 18.8741 49.1144 18.3248 48.7411 17.9088C48.3677 17.4928 47.8824 17.2848 47.2851 17.2848H45.5891C44.9384 17.2848 44.4157 17.5248 44.0211 18.0048C43.6264 18.4848 43.4291 19.1141 43.4291 19.8928V22.8368C43.4291 23.6261 43.6211 24.2608 44.0051 24.7408C44.3891 25.2101 44.8957 25.4448 45.5251 25.4448H47.2531C47.8717 25.4448 48.3731 25.2101 48.7571 24.7408C49.1411 24.2714 49.3331 23.6634 49.3331 22.9168H51.1731C51.1731 23.7488 51.0077 24.4794 50.6771 25.1088C50.3571 25.7381 49.8984 26.2288 49.3011 26.5808C48.7144 26.9221 48.0317 27.0928 47.2531 27.0928H45.5251ZM56.5124 27.0928C55.7018 27.0928 54.9871 26.9221 54.3684 26.5808C53.7498 26.2288 53.2698 25.7381 52.9284 25.1088C52.5871 24.4688 52.4164 23.7328 52.4164 22.9008V19.8288C52.4164 18.9968 52.5871 18.2661 52.9284 17.6368C53.2698 16.9968 53.7498 16.5061 54.3684 16.1648C54.9871 15.8128 55.7018 15.6368 56.5124 15.6368H58.2084C59.0191 15.6368 59.7338 15.8128 60.3524 16.1648C60.9818 16.5061 61.4671 16.9968 61.8084 17.6368C62.1498 18.2661 62.3204 18.9968 62.3204 19.8288V22.9008C62.3204 23.7328 62.1498 24.4688 61.8084 25.1088C61.4671 25.7381 60.9818 26.2288 60.3524 26.5808C59.7338 26.9221 59.0191 27.0928 58.2084 27.0928H56.5124ZM58.2084 25.4448C58.8698 25.4448 59.4084 25.2048 59.8244 24.7248C60.2404 24.2448 60.4484 23.6154 60.4484 22.8368V19.8928C60.4484 19.1141 60.2404 18.4848 59.8244 18.0048C59.4191 17.5248 58.8804 17.2848 58.2084 17.2848H56.5284C55.8564 17.2848 55.3124 17.5248 54.8964 18.0048C54.4911 18.4848 54.2884 19.1141 54.2884 19.8928V22.8368C54.2884 23.6154 54.4911 24.2448 54.8964 24.7248C55.3124 25.2048 55.8564 25.4448 56.5284 25.4448H58.2084ZM64.1739 15.7648H65.8539L71.5179 23.9568V15.7648H73.3419V26.9648H71.6459L65.9979 18.8048V26.9648H64.1739V15.7648ZM78.2697 17.3808H74.7177V15.7648H83.6937V17.3808H80.1417V26.9648H78.2697V17.3808ZM89.9668 24.1968H85.5188L84.4788 26.9648H82.5428L86.8948 15.7648H87.7428C88.3188 15.7648 88.7188 16.0474 88.9428 16.6128L92.9428 26.9648H90.9908L89.9668 24.1968ZM86.0468 22.6288H89.4388L87.7588 18.0848H87.7428L86.0468 22.6288ZM88.3508 11.8608H90.3828L88.6068 14.5968H86.8628L88.3508 11.8608ZM97.4782 27.0928C96.6889 27.0928 95.9955 26.9221 95.3982 26.5808C94.8009 26.2288 94.3369 25.7381 94.0062 25.1088C93.6755 24.4688 93.5102 23.7328 93.5102 22.9008V19.8288C93.5102 18.9968 93.6755 18.2661 94.0062 17.6368C94.3475 16.9968 94.8222 16.5061 95.4302 16.1648C96.0382 15.8128 96.7422 15.6368 97.5422 15.6368H99.2382C99.9955 15.6368 100.668 15.8021 101.254 16.1328C101.841 16.4528 102.294 16.9114 102.614 17.5088C102.934 18.0954 103.094 18.7781 103.094 19.5568H101.254C101.254 18.8741 101.068 18.3248 100.694 17.9088C100.321 17.4928 99.8355 17.2848 99.2382 17.2848H97.5422C96.8915 17.2848 96.3689 17.5248 95.9742 18.0048C95.5795 18.4848 95.3822 19.1141 95.3822 19.8928V22.8368C95.3822 23.6261 95.5742 24.2608 95.9582 24.7408C96.3422 25.2101 96.8489 25.4448 97.4782 25.4448H99.2062C99.8249 25.4448 100.326 25.2101 100.71 24.7408C101.094 24.2714 101.286 23.6634 101.286 22.9168H103.126C103.126 23.7488 102.961 24.4794 102.63 25.1088C102.31 25.7381 101.852 26.2288 101.254 26.5808C100.668 26.9221 99.9849 27.0928 99.2062 27.0928H97.4782ZM107.254 17.3808H103.702V15.7648H112.678V17.3808H109.126V26.9648H107.254V17.3808ZM118.951 24.1968H114.503L113.463 26.9648H111.527L115.879 15.7648H116.727C117.303 15.7648 117.703 16.0474 117.927 16.6128L121.927 26.9648H119.975L118.951 24.1968ZM115.031 22.6288H118.423L116.743 18.0848H116.727L115.031 22.6288ZM123.174 15.7648H124.854L130.518 23.9568V15.7648H132.342V26.9648H130.646L124.998 18.8048V26.9648H123.174V15.7648ZM138.294 27.0928C137.483 27.0928 136.768 26.9221 136.15 26.5808C135.531 26.2288 135.051 25.7381 134.71 25.1088C134.368 24.4688 134.198 23.7328 134.198 22.9008V19.8288C134.198 18.9968 134.368 18.2661 134.71 17.6368C135.051 16.9968 135.531 16.5061 136.15 16.1648C136.768 15.8128 137.483 15.6368 138.294 15.6368H139.99C140.8 15.6368 141.515 15.8128 142.134 16.1648C142.763 16.5061 143.248 16.9968 143.59 17.6368C143.931 18.2661 144.102 18.9968 144.102 19.8288V22.9008C144.102 23.7328 143.931 24.4688 143.59 25.1088C143.248 25.7381 142.763 26.2288 142.134 26.5808C141.515 26.9221 140.8 27.0928 139.99 27.0928H138.294ZM139.99 25.4448C140.651 25.4448 141.19 25.2048 141.606 24.7248C142.022 24.2448 142.23 23.6154 142.23 22.8368V19.8928C142.23 19.1141 142.022 18.4848 141.606 18.0048C141.2 17.5248 140.662 17.2848 139.99 17.2848H138.31C137.638 17.2848 137.094 17.5248 136.678 18.0048C136.272 18.4848 136.07 19.1141 136.07 19.8928V22.8368C136.07 23.6154 136.272 24.2448 136.678 24.7248C137.094 25.2048 137.638 25.4448 138.31 25.4448H139.99ZM149.155 27.0928C148.046 27.0928 147.171 26.7728 146.531 26.1328C145.891 25.4928 145.571 24.6181 145.571 23.5088H147.411C147.411 24.1061 147.566 24.5808 147.875 24.9328C148.195 25.2741 148.633 25.4448 149.187 25.4448H150.963C151.486 25.4448 151.907 25.3328 152.227 25.1088C152.547 24.8741 152.707 24.5701 152.707 24.1968V23.4928C152.707 23.2048 152.595 22.9648 152.371 22.7728C152.147 22.5808 151.827 22.4474 151.411 22.3728L148.499 21.8768C147.593 21.7274 146.894 21.4288 146.403 20.9808C145.923 20.5328 145.683 19.9621 145.683 19.2688V18.3888C145.683 17.8448 145.827 17.3648 146.115 16.9488C146.414 16.5328 146.83 16.2128 147.363 15.9888C147.897 15.7541 148.515 15.6368 149.219 15.6368H151.027C151.689 15.6368 152.27 15.7754 152.771 16.0528C153.283 16.3194 153.678 16.7034 153.955 17.2048C154.233 17.7061 154.371 18.2821 154.371 18.9328H152.547C152.547 18.4421 152.403 18.0474 152.115 17.7488C151.838 17.4394 151.475 17.2848 151.027 17.2848H149.219C148.718 17.2848 148.313 17.3968 148.003 17.6208C147.705 17.8341 147.555 18.1274 147.555 18.5008V19.0768C147.555 19.3754 147.662 19.6261 147.875 19.8288C148.089 20.0208 148.398 20.1488 148.803 20.2128L151.715 20.7248C152.633 20.8848 153.337 21.1834 153.827 21.6208C154.329 22.0474 154.579 22.5968 154.579 23.2688V24.3088C154.579 24.8528 154.43 25.3381 154.131 25.7648C153.833 26.1808 153.411 26.5061 152.867 26.7408C152.323 26.9754 151.699 27.0928 150.995 27.0928H149.155Z" fill="#F2F2F2"/>
</svg>
