<svg width="34" height="60" viewBox="0 0 34 60" fill="none" xmlns="http://www.w3.org/2000/svg">
<g clip-path="url(#clip0_65_417)">
<path d="M21.9764 36.446C20.5958 36.446 19.4779 35.3289 19.4779 33.9493C19.4779 32.5697 20.5958 31.4526 21.9764 31.4526C22.4194 31.4526 22.8315 31.5658 23.1921 31.7717L24.0524 27.9417L21.8888 25.7796C21.8012 25.7899 21.7136 25.795 21.6209 25.795C20.2403 25.795 19.1224 24.6779 19.1224 23.2983C19.1224 23.2108 19.1276 23.1181 19.1379 23.0306L16.9794 20.8737L14.8209 23.0306C14.8312 23.1181 14.8364 23.2108 14.8364 23.3035C14.8364 24.6831 13.7185 25.8002 12.3379 25.8002C12.2452 25.8002 12.1524 25.795 12.0649 25.7847L9.90121 27.9469L10.7615 31.7769C11.1221 31.5761 11.5342 31.4577 11.9773 31.4577C13.3579 31.4577 14.4758 32.5748 14.4758 33.9545C14.4758 35.3341 13.3579 36.4512 11.9773 36.4512C11.9206 36.4512 11.8639 36.4512 11.8124 36.4409L16.9794 59.4211L22.1464 36.4409C22.0897 36.4409 22.0382 36.4512 21.9815 36.4512L21.9764 36.446Z" fill="#C70039"/>
<path d="M19.1482 12.1222C19.1482 10.7426 20.2661 9.62547 21.6467 9.62547C21.7394 9.62547 21.8321 9.63062 21.9197 9.64092L24.0782 7.48395L21.9145 5.32184C21.827 5.33213 21.7394 5.33728 21.6467 5.33728C20.2661 5.33728 19.1482 4.22019 19.1482 2.84055C19.1482 2.75304 19.1533 2.66037 19.1636 2.57286L17.0052 0.415894L14.8467 2.57286C14.857 2.66037 14.8621 2.75304 14.8621 2.8457C14.8621 4.22533 13.7442 5.34243 12.3636 5.34243C12.2709 5.34243 12.1782 5.33728 12.0906 5.32698L9.92697 7.4891L12.0803 9.64092C12.173 9.63062 12.2658 9.62547 12.3585 9.62547C13.7391 9.62547 14.857 10.7426 14.857 12.1222C14.857 12.2149 14.8518 12.3075 14.8415 12.4002L17 14.5572L19.1636 12.395C19.1533 12.3075 19.1482 12.2149 19.1482 12.1222Z" fill="#C70039"/>
<path d="M22.2855 19.8853C23.6661 19.8853 24.7839 21.0024 24.7839 22.382C24.7839 22.4746 24.7788 22.5673 24.7685 22.6548L26.927 24.8118L29.0906 22.6497C29.0803 22.5622 29.0751 22.4746 29.0751 22.382C29.0751 21.0024 30.193 19.8853 31.5736 19.8853C31.6612 19.8853 31.7539 19.8904 31.8415 19.9007L34 17.7437L31.8415 15.5868C31.7539 15.5971 31.6612 15.6022 31.5685 15.6022C30.1879 15.6022 29.07 14.4851 29.07 13.1055C29.07 13.0128 29.0751 12.9202 29.0855 12.8326L26.9218 10.6705L24.7685 12.8224C24.7788 12.915 24.7839 13.0077 24.7839 13.1003C24.7839 14.48 23.6661 15.5971 22.2855 15.5971C22.1927 15.5971 22.1 15.5919 22.0073 15.5816L19.8488 17.7386L22.0124 19.9007C22.1 19.8904 22.1927 19.8853 22.2855 19.8853Z" fill="#C70039"/>
<path d="M2.43667 19.8853C3.81727 19.8853 4.93515 21.0024 4.93515 22.382C4.93515 22.4746 4.93 22.5673 4.9197 22.6548L7.07818 24.8118L9.24182 22.6497C9.23151 22.5622 9.22636 22.4746 9.22636 22.382C9.22636 21.0024 10.3442 19.8853 11.7248 19.8853C11.8124 19.8853 11.9052 19.8904 11.9927 19.9007L14.1512 17.7437L11.9927 15.5868C11.9052 15.5971 11.8124 15.6022 11.7197 15.6022C10.3391 15.6022 9.22121 14.4851 9.22121 13.1055C9.22121 13.0128 9.22636 12.9202 9.23667 12.8326L7.07303 10.6705L4.9197 12.8224C4.93 12.915 4.93515 13.0077 4.93515 13.1003C4.93515 14.48 3.81727 15.5971 2.43667 15.5971C2.34394 15.5971 2.25121 15.5919 2.15848 15.5816L0 17.7386L2.16364 19.9007C2.25121 19.8904 2.34394 19.8853 2.43667 19.8853Z" fill="#C70039"/>
</g>
<defs>
<clipPath id="clip0_65_417">
<rect width="34" height="59" fill="white" transform="translate(0 0.415894)"/>
</clipPath>
</defs>
</svg>
