<svg width="1113" height="300" viewBox="0 0 1113 300" fill="none" xmlns="http://www.w3.org/2000/svg">
<path d="M133.141 0.468994C136.062 0.468994 137.61 2.01714 137.61 4.73371V27.4594C137.61 30.1759 136.062 31.7241 133.141 31.7241H40.2227V52.9016H117.981C120.697 52.9016 122.45 54.4497 122.45 57.1663V78.5483C122.45 81.2648 120.697 82.813 117.981 82.813H40.2227V105.159H133.112C136.033 105.159 137.581 106.707 137.581 109.424V132.149C137.581 134.866 136.033 136.414 133.112 136.414H5.43313C2.51209 136.414 0.963942 134.866 0.963942 132.149V4.73371C0.963942 2.01714 2.5413 0.468994 5.43313 0.468994H133.141Z" fill="#6F7385"/>
<path d="M251.297 136.531C248.171 136.531 246.243 135.567 245.075 133.026L194.161 31.578V132.266C194.161 134.983 192.409 136.531 189.692 136.531H162.468C159.547 136.531 157.999 134.983 157.999 132.266V4.73371C157.999 2.01714 159.547 0.468994 162.468 0.468994H213.586C216.682 0.468994 218.639 1.43294 219.808 3.97424L270.722 105.626V4.73371C270.722 2.01714 272.474 0.468994 275.395 0.468994H302.415C305.336 0.468994 306.884 2.01714 306.884 4.73371V132.237C306.884 134.953 305.336 136.502 302.415 136.502H251.297V136.531Z" fill="#6F7385"/>
<path d="M372.578 31.7533H326.134C323.213 31.7533 321.664 30.2051 321.664 27.4886V4.73371C321.664 2.01714 323.213 0.468994 326.134 0.468994H458.281C461.202 0.468994 462.75 2.01714 462.75 4.73371V27.4594C462.75 30.1759 461.202 31.7241 458.281 31.7241H411.837V132.208C411.837 134.924 410.084 136.472 407.368 136.472H377.047C374.126 136.472 372.578 134.924 372.578 132.208V31.7533Z" fill="#6F7385"/>
<path d="M620.749 31.578V58.5976C620.749 80.3593 611.227 91.6345 588.296 91.6345H587.712L625.014 132.266C626.562 134.019 625.598 136.531 623.466 136.531H585.171C581.461 136.531 579.913 135.742 577.781 133.23L544.364 93.5916H517.14V132.266C517.14 134.983 515.387 136.531 512.466 136.531H482.351C479.43 136.531 477.881 134.983 477.881 132.266V4.73371C477.881 2.01714 479.43 0.468994 482.351 0.468994H588.267C611.197 0.468994 620.72 9.78709 620.72 31.578H620.749ZM517.169 62.2781H568.492C579.767 62.2781 581.52 60.5255 581.52 51.2074V42.8532C581.52 33.5351 579.767 31.7825 568.492 31.7825H517.169V62.3073V62.2781Z" fill="#6F7385"/>
<path d="M786.927 105.422C786.927 127.183 777.2 136.531 754.474 136.531H671.488C648.937 136.531 638.83 127.213 638.83 105.422V31.578C638.83 9.81631 648.937 0.468994 671.488 0.468994H754.474C777.2 0.468994 786.927 9.78709 786.927 31.578V105.422ZM747.668 44.1969C747.668 33.7104 745.536 31.7533 732.712 31.7533H693.074C680.455 31.7533 678.118 33.6812 678.118 44.1969V92.7737C678.118 103.26 680.455 105.217 693.074 105.217H732.712C745.536 105.217 747.668 103.289 747.668 92.7737V44.1969Z" fill="#6F7385"/>
<path d="M951.556 31.578V64.0307C951.556 85.7924 941.829 95.1397 919.104 95.1397H848.94V132.266C848.94 134.983 847.188 136.531 844.267 136.531H814.151C811.23 136.531 809.682 134.983 809.682 132.266V4.73371C809.682 2.01714 811.23 0.468994 814.151 0.468994H919.104C941.829 0.468994 951.556 9.78709 951.556 31.578ZM848.94 63.8555H899.27C910.545 63.8555 912.298 62.1028 912.298 52.7847V42.8824C912.298 33.5643 910.545 31.8117 899.27 31.8117H848.94V63.8847V63.8555Z" fill="#6F7385"/>
<path d="M1015.09 86.9608L957.749 4.76292C956.376 2.80582 957.369 0.498204 959.677 0.498204H996.978C1000.07 0.498204 1001.65 1.08241 1003.4 3.79897L1035.48 53.9531L1067.55 3.79897C1069.3 1.08241 1071.06 0.498204 1074.15 0.498204H1109.73C1112.07 0.498204 1113.03 2.83503 1111.69 4.76292L1054.35 86.9608V132.237C1054.35 134.953 1052.59 136.502 1049.88 136.502H1019.56C1016.84 136.502 1015.09 134.953 1015.09 132.237V86.9608Z" fill="#6F7385"/>
<path d="M39.2587 255.767C39.2587 266.254 41.5955 268.211 54.2144 268.211H88.6242C101.448 268.211 103.58 266.283 103.58 255.767V167.727C103.58 165.011 105.128 163.463 108.049 163.463H138.369C141.086 163.463 142.839 165.011 142.839 167.727V268.416C142.839 290.177 133.112 299.525 110.386 299.525H32.6572C9.93152 299.525 0 290.206 0 268.416V167.727C0 165.011 1.54815 163.463 4.46918 163.463H34.7895C37.7106 163.463 39.2587 165.011 39.2587 167.727V255.767Z" fill="#6F7385"/>
<path d="M259.446 299.495C256.35 299.495 254.393 298.531 253.225 295.99L202.311 194.543V295.231C202.311 297.947 200.558 299.495 197.842 299.495H170.647C167.726 299.495 166.178 297.947 166.178 295.231V167.727C166.178 165.011 167.726 163.463 170.647 163.463H221.765C224.861 163.463 226.818 164.427 227.987 166.968L278.9 268.62V167.757C278.9 165.04 280.653 163.492 283.574 163.492H310.594C313.515 163.492 315.063 165.04 315.063 167.757V295.26C315.063 297.976 313.515 299.525 310.594 299.525H259.476L259.446 299.495Z" fill="#6F7385"/>
<path d="M378.8 295.231C378.8 297.947 377.047 299.495 374.126 299.495H344.01C341.089 299.495 339.541 297.947 339.541 295.231V167.727C339.541 165.011 341.089 163.463 344.01 163.463H374.126C377.047 163.463 378.8 165.011 378.8 167.727V295.231Z" fill="#6F7385"/>
<path d="M444.669 194.747H398.225C395.304 194.747 393.756 193.199 393.756 190.482V167.757C393.756 165.04 395.304 163.492 398.225 163.492H530.372C533.293 163.492 534.842 165.04 534.842 167.757V190.482C534.842 193.199 533.293 194.747 530.372 194.747H483.928V295.231C483.928 297.947 482.175 299.495 479.459 299.495H449.138C446.217 299.495 444.669 297.947 444.669 295.231V194.747Z" fill="#6F7385"/>
</svg>
