<svg width="368" height="198" viewBox="0 0 368 198" fill="none" xmlns="http://www.w3.org/2000/svg">
<path d="M239 95.3657C234.233 92.4786 229.457 89.6094 224.672 86.7492C225.095 86.0027 225.5 85.2472 225.886 84.4827C228.018 80.2014 229.502 75.5963 230.222 70.8653C230.59 68.4638 230.788 66.0444 230.788 63.6069C230.779 58.723 230.033 53.8302 228.522 49.1891C227.541 46.167 226.246 43.2349 224.672 40.4647C229.457 37.6045 234.233 34.7353 239 31.8481C234.116 34.5374 229.241 37.2357 224.375 39.952C223.701 38.8007 222.972 37.6764 222.199 36.5881C219.446 32.7116 216.137 29.2938 212.359 26.3976C208.617 23.5284 204.453 21.2619 200.028 19.6339C195.468 17.961 190.638 17.0346 185.79 16.8457C185.286 16.8277 184.791 16.8187 184.288 16.8097C184.207 11.2333 184.108 5.66581 183.991 0.0893555C183.874 5.66581 183.775 11.2333 183.694 16.8097C179.485 16.8367 175.267 17.4213 171.219 18.5726C166.677 19.8588 162.315 21.8465 158.366 24.4459C154.454 27.0182 150.91 30.1752 147.933 33.7909C146.332 35.7337 144.902 37.7934 143.634 39.952C138.759 37.2357 133.884 34.5374 129 31.8481C133.776 34.7353 138.552 37.6045 143.337 40.4647C142.33 42.2455 141.43 44.0804 140.657 45.9782C138.822 50.4483 137.724 55.2063 137.356 60.0272C136.978 64.9381 137.383 69.9299 138.543 74.7149C139.559 78.9152 141.187 82.9896 143.337 86.7492C138.552 89.6094 133.776 92.4786 129.009 95.3657C133.893 92.6764 138.768 89.9782 143.634 87.2619C143.742 87.4418 143.85 87.6307 143.957 87.8105C146.386 91.822 149.426 95.4737 152.934 98.5857C156.442 101.698 160.399 104.297 164.671 106.222C169.114 108.228 173.818 109.523 178.657 110.089C180.33 110.287 182.021 110.386 183.712 110.395C183.793 115.972 183.892 121.548 184.009 127.116C184.126 121.539 184.225 115.972 184.306 110.395C187.364 110.377 190.422 110.053 193.417 109.451C198.076 108.506 202.6 106.824 206.756 104.513C210.848 102.237 214.617 99.3142 217.854 95.9234C220.355 93.306 222.558 90.3919 224.393 87.2619C229.25 89.9782 234.125 92.6764 239 95.3657ZM223.998 43.7746C226.012 47.813 227.415 52.2562 228.126 56.8073C228.459 58.9479 228.63 61.3314 228.639 63.6159C228.63 68.3649 227.928 72.916 226.453 77.4671C225.527 80.3093 224.312 83.0436 222.828 85.6519C222.469 85.436 222.109 85.2292 221.758 85.0133C222.451 83.7901 223.089 82.5399 223.656 81.2627L223.323 81.1188C222.756 82.387 222.136 83.6192 221.443 84.8334C221.047 84.5996 220.652 84.3567 220.256 84.1229C220.625 83.4753 220.975 82.8187 221.308 82.1531C223.206 78.3396 224.51 74.2292 225.158 70.0199C225.482 67.9062 225.644 65.7656 225.652 63.6249C225.644 59.2717 224.978 54.9275 223.638 50.7811C222.837 48.3077 221.794 45.9062 220.544 43.6307C220.463 43.4508 220.382 43.2799 220.301 43.1C221.146 42.5963 221.992 42.0926 222.837 41.589C223.233 42.2905 223.629 43.019 223.998 43.7746ZM151.944 87.4328C150.937 86.4164 150.056 85.2921 149.3 84.0959C149.624 83.916 149.957 83.7271 150.28 83.5472C150.505 83.916 150.757 84.2758 151.009 84.6266C151.531 85.3371 152.115 86.0117 152.736 86.6413C157.881 91.741 165.814 93.1801 172.397 90.1221C174.52 89.1417 176.373 87.7386 177.893 86.0567C178.316 86.1736 178.738 86.2725 179.161 86.3625C178.72 86.8841 178.244 87.3788 177.749 87.8465C177.569 87.9994 177.389 88.1613 177.218 88.3322C176.625 88.8539 175.995 89.3306 175.33 89.7713C168.935 94.0256 160.354 93.8367 154.148 89.3306C153.365 88.7549 152.628 88.1163 151.944 87.4328ZM158.564 56.9422C159.086 56.8253 159.59 56.6544 160.075 56.4565C160.714 56.2766 161.361 56.1327 162.018 56.0248C161.874 56.4385 161.748 56.8522 161.622 57.275C157.197 58.1834 153.159 60.7737 150.568 64.6503C146.944 70.0648 146.728 77.2243 149.867 82.8457C149.543 83.0346 149.219 83.2325 148.904 83.4213C147.852 81.5685 147.123 79.5358 146.764 77.4042C146.134 73.7255 146.656 69.849 148.239 66.4761C149.894 62.9414 152.664 59.9732 156.082 58.0844C156.882 57.6437 157.719 57.266 158.564 56.9422ZM190.854 86.4164C190.71 86.2725 190.566 86.1196 190.431 85.9667C194.352 84.8424 197.959 82.6658 200.783 79.7157C201.953 78.5015 202.978 77.1523 203.859 75.7222C208.375 78.2856 212.899 80.84 217.432 83.3764C216.155 85.4361 214.437 87.2439 212.341 88.62C206.477 92.4786 198.607 92.2987 192.922 88.1793C192.185 87.6486 191.501 87.055 190.854 86.4164ZM180.78 85.553C181.895 83.979 182.786 82.2431 183.397 80.3993C183.406 82.1262 183.415 83.8531 183.433 85.571C183.047 85.5979 182.66 85.6429 182.282 85.7149C181.778 85.6789 181.275 85.6249 180.78 85.553ZM152.934 86.4434C152.007 85.517 151.207 84.4917 150.541 83.4033C155.083 80.858 159.617 78.2946 164.15 75.7312C166.569 79.6797 170.176 82.8907 174.403 84.7975C175.446 85.2742 176.526 85.6609 177.632 85.9757C176.706 86.9831 175.662 87.8825 174.493 88.647C168.611 92.5235 160.714 92.3437 155.011 88.2063C154.265 87.6756 153.572 87.082 152.934 86.4434ZM205.928 60.1981C206.108 61.3224 206.18 62.4647 206.189 63.6069C206.18 67.3126 205.253 70.9553 203.5 74.2022C198.472 71.2521 193.426 68.3109 188.38 65.3878C191.753 59.9193 198.094 56.6903 204.57 57.293C204.813 57.3199 205.065 57.3469 205.307 57.3829C205.568 58.3003 205.775 59.2447 205.928 60.1981ZM188.488 64.6863C188.362 64.8661 188.245 65.055 188.128 65.2439C187.796 65.046 187.454 64.8572 187.121 64.6593C188.038 63.1662 189.163 61.8081 190.449 60.6208C192.706 59.3077 194.964 57.9945 197.222 56.6814C199.614 55.9078 202.159 55.62 204.678 55.8539C204.714 55.8539 204.75 55.8629 204.795 55.8629C204.948 56.2676 205.083 56.6813 205.217 57.0951C198.742 56.2766 192.158 59.1997 188.488 64.6863ZM183.352 58.9299C181.068 58.858 178.792 58.3363 176.652 57.3379C172.676 55.4761 169.636 52.1662 167.999 48.2447C169.942 46.23 172.262 44.5751 174.817 43.4058C177.506 42.1736 180.456 41.508 183.415 41.436C183.388 47.2643 183.361 53.1016 183.352 58.9299ZM184.657 60.9266C185.799 60.8907 186.941 60.7558 188.065 60.5129C186.932 61.1695 185.79 61.8171 184.657 62.4737C184.657 61.961 184.657 61.4483 184.657 60.9266ZM183.352 62.4827C182.219 61.8261 181.086 61.1785 179.953 60.5219C181.077 60.7558 182.21 60.8907 183.352 60.9266C183.352 61.4483 183.352 61.961 183.352 62.4827ZM182.705 63.6069C182.327 63.8228 181.958 64.0387 181.581 64.2545C181.113 63.49 180.591 62.7525 180.025 62.0509C180.915 62.5726 181.805 63.0943 182.705 63.6069ZM183.352 64.7312C183.352 65.8375 183.352 66.9348 183.352 68.0411C183.038 67.1327 182.66 66.2423 182.21 65.3878C182.597 65.1719 182.975 64.9471 183.352 64.7312ZM184.657 64.7312C185.034 64.9471 185.412 65.1629 185.79 65.3788C185.34 66.2423 184.962 67.1327 184.657 68.0501C184.657 66.9438 184.657 65.8375 184.657 64.7312ZM185.304 63.6069C186.195 63.0943 187.094 62.5726 187.984 62.0509C187.571 62.5546 187.175 63.0853 186.806 63.6339C186.671 63.8408 186.536 64.0387 186.41 64.2545C186.042 64.0387 185.673 63.8228 185.304 63.6069ZM199.677 55.2423C200.945 54.4957 202.213 53.7582 203.491 53.0117C203.85 53.6683 204.165 54.3428 204.462 55.0264C202.861 54.9095 201.251 54.9814 199.677 55.2423ZM198.31 54.6486C199.587 53.2365 200.657 51.6445 201.476 49.9356C201.998 50.6012 202.483 51.3028 202.924 52.0223C201.377 52.9037 199.839 53.7762 198.31 54.6486ZM199.002 52.526C198.436 53.3085 197.797 54.046 197.114 54.7296C196.457 55.3862 195.756 55.9888 195.009 56.5284C193.759 57.239 192.509 57.9585 191.258 58.6781C189.927 59.2447 188.524 59.6585 187.085 59.9103C186.276 60.0452 185.466 60.1262 184.648 60.1531C184.648 59.8293 184.648 59.5056 184.648 59.1908C188.119 59.0648 191.564 57.9315 194.442 55.8089C195.153 55.2782 195.827 54.7026 196.457 54.073C198.085 52.436 199.335 50.5203 200.199 48.4516C200.442 48.7034 200.675 48.9643 200.9 49.2341C200.388 50.3854 199.758 51.4916 199.002 52.526ZM198.031 51.8154C197.5 52.553 196.898 53.2365 196.259 53.8841C193.12 56.9961 188.929 58.741 184.639 58.9209C184.63 53.0926 184.603 47.2553 184.558 41.4271C185.853 41.463 187.148 41.6069 188.425 41.8678C192.832 42.7672 196.889 45.0158 200.001 48.2537C199.506 49.5039 198.85 50.7091 198.031 51.8154ZM191.987 41.7508C189.612 40.8784 187.094 40.4107 184.567 40.3477C184.531 34.9961 184.477 29.6446 184.405 24.284C189.972 24.4369 195.324 27.288 198.481 32.046C201.44 36.5252 202.078 42.1556 200.433 47.1384C198.04 44.7729 195.162 42.9201 191.987 41.7508ZM183.442 40.3567C181.473 40.4017 179.521 40.6985 177.623 41.2292C173.845 42.3085 170.365 44.3592 167.585 47.1294C166.812 44.8539 166.506 42.4164 166.74 39.952C167.433 32.7296 172.766 26.5415 179.809 24.7876C181.068 24.4728 182.336 24.3109 183.604 24.293C183.532 29.6446 183.478 35.0051 183.442 40.3567ZM174.304 56.3306C177.029 58.1294 180.177 59.0828 183.352 59.1997C183.352 59.5235 183.352 59.8383 183.352 60.1621C181.113 60.0812 178.891 59.6045 176.823 58.732C175.536 57.9945 174.241 57.257 172.955 56.5195C170.832 54.9455 169.051 52.9217 167.765 50.5922C167.522 50.1515 167.298 49.7108 167.1 49.2521C167.334 48.9822 167.567 48.7124 167.81 48.4606C169.132 51.5996 171.363 54.3788 174.304 56.3306ZM169.708 54.6576C168.17 53.7762 166.623 52.9038 165.085 52.0223C165.526 51.3028 166.011 50.6012 166.533 49.9356C167.352 51.6625 168.431 53.2545 169.708 54.6576ZM168.323 55.2423C166.749 54.9724 165.139 54.9005 163.547 55.0264C163.835 54.3428 164.159 53.6683 164.509 53.0117C165.787 53.7582 167.055 54.5047 168.323 55.2423ZM166.776 55.8539C168.161 55.9798 169.51 56.2676 170.805 56.6903C173.009 57.9765 175.213 59.2627 177.425 60.5399C178.756 61.7361 179.926 63.1302 180.87 64.6593C180.537 64.8482 180.213 65.037 179.881 65.2349C177.515 61.4033 173.702 58.4892 169.195 57.3919C167.073 56.8792 164.914 56.7803 162.809 57.0681C162.935 56.6634 163.07 56.2586 163.214 55.8629C164.401 55.7549 165.589 55.7459 166.776 55.8539ZM166.659 57.248C172.056 57.7517 176.877 60.8727 179.665 65.3698C174.61 68.3019 169.555 71.2431 164.518 74.2022C163.043 71.4859 162.135 68.4548 161.901 65.3698C161.694 62.6625 161.982 59.9373 162.738 57.3469C164.015 57.167 165.337 57.1311 166.659 57.248ZM163.583 74.7508C159.095 77.3862 154.607 80.0395 150.128 82.7018C147.501 77.9618 147.159 72.0975 149.525 67.0607C151.827 62.1409 156.379 58.6781 161.55 57.5718C161.182 58.9479 160.93 60.36 160.813 61.7901C160.462 66.2603 161.433 70.8114 163.583 74.7508ZM177.911 84.9414C173.603 83.7182 169.744 81.1638 166.893 77.728C166.227 76.9275 165.625 76.082 165.085 75.1916C170.167 72.3044 175.24 69.4083 180.303 66.4941C180.915 67.6724 181.401 68.9316 181.715 70.2537C182.984 75.4704 181.661 80.9749 178.397 85.0673C178.226 85.0313 178.073 84.9863 177.911 84.9414ZM182.39 72.6552C182.174 70.4246 181.527 68.3019 180.519 66.3682C180.852 66.1793 181.185 65.9904 181.509 65.7925C182.183 67.0787 182.714 68.4548 183.065 69.9029C183.182 70.3886 183.28 70.8743 183.361 71.36C183.37 73.2848 183.37 75.2095 183.379 77.1343C183.182 78.4115 182.858 79.6707 182.408 80.8759C181.796 82.4949 180.951 84.0239 179.917 85.4091C179.494 85.3281 179.08 85.2382 178.666 85.1392C181.401 81.6674 182.822 77.1883 182.39 72.6552ZM184.576 85.571C184.585 83.862 184.603 82.1531 184.612 80.4532C185.205 82.2611 186.069 83.979 187.193 85.553C186.725 85.6249 186.249 85.6699 185.781 85.7149C185.385 85.6429 184.98 85.589 184.576 85.571ZM184.666 77.4042C184.648 77.3232 184.639 77.2423 184.63 77.1613C184.639 75.2275 184.648 73.2848 184.648 71.351C184.917 69.6691 185.421 68.0141 186.141 66.4761C186.249 66.2423 186.365 66.0174 186.482 65.7836C186.824 65.9814 187.157 66.1703 187.499 66.3682C184.558 72.1245 185.052 79.311 188.929 84.5816C189.064 84.7705 189.208 84.9504 189.352 85.1302C188.938 85.2292 188.515 85.3281 188.092 85.4001C186.348 83.0526 185.16 80.3183 184.666 77.4042ZM187.472 67.0338C187.553 66.8539 187.643 66.674 187.733 66.5031C192.787 69.4082 197.851 72.3044 202.924 75.1826C202.654 75.6233 202.375 76.046 202.078 76.4688C199.506 80.0845 195.818 82.9087 191.645 84.4287C190.989 84.6715 190.323 84.8694 189.648 85.0493C185.628 80.0215 184.684 72.952 187.472 67.0338ZM204.426 74.7419C205.703 72.4123 206.576 69.867 206.98 67.2406C207.169 66.0354 207.259 64.8212 207.268 63.6069C207.259 61.5652 206.989 59.5415 206.468 57.5808C212.773 58.9209 217.98 63.8498 219.554 70.1818C220.616 74.463 219.923 78.9332 217.845 82.6748C213.375 80.0215 208.905 77.3772 204.426 74.7419ZM220.238 72.5922C219.509 65.3608 214.167 59.1818 207.097 57.4459C206.863 57.3919 206.621 57.3379 206.378 57.284C206.261 56.8612 206.126 56.4385 205.982 56.0158C213.186 57.212 219.204 62.7435 220.957 69.8939C221.848 73.5186 221.605 77.3772 220.301 80.867C219.968 81.7484 219.572 82.6029 219.105 83.4213C218.754 83.2145 218.412 83.0076 218.061 82.8007C219.788 79.7517 220.598 76.1899 220.238 72.5922ZM205.676 55.1613C205.658 55.1163 205.64 55.0624 205.622 55.0174C205.694 55.0714 205.766 55.1343 205.838 55.1883C205.784 55.1793 205.73 55.1703 205.676 55.1613ZM201.962 48.8293C201.989 48.7664 202.016 48.7034 202.034 48.6405C202.043 48.7574 202.061 48.8653 202.078 48.9822C202.043 48.9283 201.998 48.8833 201.962 48.8293ZM201.35 48.1278C201.116 47.858 200.864 47.6061 200.621 47.3453C202.061 43.136 201.926 38.432 200.001 34.2496C197.204 28.1515 191.007 24.185 184.396 24.0141C184.396 23.6993 184.387 23.3935 184.387 23.0787C186.491 23.1237 188.578 23.5194 190.557 24.266C194.164 25.6151 197.312 28.1425 199.443 31.3445C202.762 36.3273 203.374 42.6413 201.35 48.1278ZM179.584 23.6094C180.906 23.2856 182.264 23.1147 183.613 23.0877C183.613 23.3935 183.604 23.7083 183.604 24.0141C183.164 24.0231 182.714 24.0501 182.273 24.0951C174.934 24.8236 168.656 30.2382 166.893 37.4156C166.074 40.7525 166.29 44.1973 167.379 47.3453C167.127 47.6061 166.875 47.867 166.632 48.1368C165.661 45.5194 165.274 42.6952 165.535 39.898C166.245 32.118 172.011 25.4622 179.584 23.6094ZM165.975 48.6584C166.002 48.7124 166.02 48.7754 166.047 48.8293C166.011 48.8743 165.975 48.9193 165.931 48.9732C165.948 48.8653 165.957 48.7664 165.975 48.6584ZM162.342 55.1613C162.315 55.1613 162.297 55.1702 162.27 55.1702C162.306 55.1433 162.333 55.1163 162.369 55.0984C162.36 55.1163 162.351 55.1433 162.342 55.1613ZM181.518 86.7222C182.156 86.7942 182.795 86.8302 183.433 86.8482C183.478 92.6045 183.532 98.3608 183.613 104.108C181.158 103.991 178.792 102.867 177.164 100.924C174.754 98.046 174.466 93.8187 176.409 90.6168C177.569 88.71 179.431 87.3428 181.518 86.7222ZM184.387 104.117C184.459 98.3608 184.522 92.6045 184.567 86.8571C185.223 86.8392 185.88 86.8032 186.536 86.7312C190.251 87.8465 192.868 91.3273 192.895 95.2488C192.868 98.9545 190.53 102.363 187.013 103.613C186.159 103.919 185.268 104.081 184.387 104.117ZM189.837 87.4328C189.496 87.091 189.163 86.7312 188.848 86.3625C189.28 86.2725 189.711 86.1646 190.134 86.0477C190.305 86.2365 190.485 86.4254 190.665 86.6053C195.792 91.6871 203.688 93.1262 210.254 90.0861C213.357 88.647 215.903 86.3175 217.657 83.5023C218.007 83.7002 218.358 83.898 218.709 84.0959C217.306 86.3445 215.426 88.2962 213.222 89.7623C206.827 94.0166 198.247 93.8277 192.041 89.3216C191.258 88.7549 190.53 88.1163 189.837 87.4328ZM222.217 72.4753C221.83 68.5088 220.229 64.7312 217.621 61.7002C216.002 59.8204 214.023 58.2643 211.828 57.1221C212.413 57.1131 213.007 57.0501 213.591 56.9332C218.07 56.0338 221.308 51.9683 221.335 47.4352C221.335 47.3003 221.326 47.1744 221.326 47.0485C222.774 50.3134 223.791 53.7762 224.348 57.3109C224.672 59.3976 224.825 61.5023 224.825 63.6159C224.816 67.8972 224.159 72.1695 222.837 76.2439C222.442 77.4761 221.974 78.6903 221.461 79.8776C222.181 77.5031 222.46 74.9937 222.217 72.4753ZM220.535 47.4352C220.508 51.1409 218.169 54.5497 214.652 55.7999C211.154 57.0501 207.187 55.9618 204.804 53.1106C204.768 53.0657 204.732 53.0207 204.696 52.9757C204.606 52.8048 204.516 52.6339 204.426 52.463C209.481 49.4949 214.518 46.5088 219.554 43.5137C219.635 43.6576 219.716 43.8015 219.797 43.9455C220.265 45.0338 220.526 46.212 220.535 47.4352ZM219.177 42.8661C214.068 45.7263 208.959 48.6045 203.859 51.5006C203.715 51.2668 203.572 51.0329 203.419 50.8081C202.384 48.2447 202.582 45.2406 204.048 42.8302C205.964 39.6822 209.76 38.0002 213.375 38.7288C215.543 39.1695 217.405 40.3927 218.682 42.0656C218.853 42.3265 219.015 42.5873 219.177 42.8661ZM214.985 38.333C211.181 36.9209 206.729 38.1351 204.165 41.2742C203.859 41.6519 203.581 42.0477 203.338 42.4614C203.464 39.3854 202.87 36.2913 201.575 33.4761C199.281 28.4933 194.901 24.8056 189.81 23.1777C190.602 23.2946 191.402 23.4295 192.185 23.5914C196.268 24.4279 200.226 25.8849 203.868 27.9177C207.448 29.9144 210.713 32.4418 213.546 35.4099C214.688 36.6061 215.75 37.8653 216.739 39.1785C216.182 38.8457 215.597 38.5579 214.985 38.333ZM171.381 26.9463C168.35 29.5546 166.164 33.0984 165.211 36.9839C164.761 38.8097 164.59 40.6985 164.68 42.5693C163.565 40.6895 161.829 39.1875 159.697 38.396C156.873 37.3526 153.698 37.7484 151.198 39.3044C152.88 37.0468 154.787 34.9512 156.891 33.0804C159.958 30.3551 163.439 28.0885 167.181 26.3976C170.635 24.8236 174.331 23.7533 178.091 23.2046C175.635 23.9871 173.351 25.2553 171.381 26.9463ZM158.088 38.7827C162.216 39.6102 165.211 43.3069 165.238 47.5072C165.229 48.6584 164.995 49.7827 164.581 50.8171C164.437 51.0419 164.294 51.2668 164.15 51.5006C159.05 48.6045 153.941 45.7263 148.832 42.8661C148.913 42.7402 148.985 42.6053 149.066 42.4794C149.138 42.3625 149.21 42.2545 149.282 42.1376C151.306 39.4753 154.769 38.1172 158.088 38.7827ZM148.455 43.5227C153.491 46.5178 158.537 49.5039 163.592 52.472C163.493 52.6609 163.394 52.8408 163.295 53.0297C162.396 54.1629 161.226 55.0894 159.859 55.674C159.347 55.8179 158.834 55.9798 158.339 56.1687C155.11 56.8972 151.666 55.7549 149.516 53.1916C147.366 50.6282 146.908 46.9945 148.203 43.9724C148.284 43.8195 148.365 43.6666 148.455 43.5227ZM148.059 52.535C149.777 55.3592 152.835 57.0771 156.055 57.185C153.186 58.6961 150.712 60.9177 148.913 63.6339C145.729 68.4189 144.947 74.427 146.521 79.8236C146.413 79.5718 146.305 79.311 146.197 79.0501C144.596 75.1286 143.616 70.9643 143.292 66.7459C142.968 62.4557 143.31 58.1204 144.326 53.9381C144.902 51.5636 145.702 49.2431 146.692 47.0035C146.593 48.9193 147.034 50.8531 148.059 52.535ZM151.369 88.0084C154.22 90.8416 157.908 92.7664 161.874 93.414C165.706 94.0436 169.663 93.5129 173.189 91.8849C173.989 91.5162 174.754 91.0935 175.482 90.6257C173.881 93.6118 173.899 97.3265 175.698 100.286C176.841 102.156 178.567 103.542 180.546 104.297C177.929 104.081 175.33 103.613 172.802 102.894C168.836 101.77 165.049 100.034 161.604 97.7672C158.186 95.5276 155.11 92.7664 152.502 89.6094C151.935 88.9258 151.396 88.2333 150.883 87.5137C151.054 87.6756 151.207 87.8465 151.369 88.0084ZM193.705 95.2488C193.696 93.5849 193.255 91.9929 192.491 90.5898C194.694 92.0109 197.177 92.9822 199.776 93.405C203.608 94.0346 207.565 93.5039 211.091 91.876C213.438 90.7876 215.507 89.2406 217.198 87.3788C214.859 90.6437 212.026 93.5759 208.842 96.0133C205.568 98.5137 201.926 100.537 198.058 101.95C194.667 103.191 191.123 103.973 187.535 104.279C191.168 102.849 193.678 99.2333 193.705 95.2488ZM192.895 19.8588C197.446 20.7852 201.692 22.3592 205.703 24.5988C209.67 26.8114 213.123 29.4916 216.271 32.7746C218.673 35.284 220.742 38.0182 222.495 41.0043C221.641 41.481 220.787 41.9577 219.923 42.4434C219.743 42.1376 219.536 41.8408 219.321 41.562C218.88 40.8604 218.43 40.1768 217.944 39.5023C215.534 36.1204 212.629 33.1073 209.328 30.571C205.991 27.9986 202.267 25.9569 198.31 24.4998C194.253 23.0068 189.954 22.1703 185.637 21.9994C185.214 21.9814 184.792 21.9724 184.36 21.9724C184.351 21.5137 184.351 21.046 184.342 20.5873C185.7 20.5963 187.076 20.6683 188.416 20.8122L188.452 20.4524C187.094 20.3175 185.709 20.2365 184.333 20.2275C184.324 19.8138 184.324 19.3911 184.315 18.9773C187.229 18.9953 190.107 19.2921 192.895 19.8588ZM145.81 40.4916C148.149 36.6241 150.991 33.2243 154.4 30.1932C157.71 27.2431 161.523 24.7786 165.643 22.8988C167.612 21.9994 169.798 21.2169 171.984 20.6053C173.117 20.2905 174.259 20.0207 175.419 19.7868C176.571 19.562 177.713 19.3821 178.783 19.2562C180.411 19.0673 182.048 18.9773 183.676 18.9593C183.667 19.3731 183.667 19.7958 183.658 20.2096C182.237 20.2185 180.807 20.2995 179.404 20.4524L179.44 20.8122C180.825 20.6683 182.246 20.5873 183.649 20.5783C183.64 21.037 183.64 21.5047 183.631 21.9634C179.908 21.9994 176.184 22.5211 172.604 23.5374C168.557 24.6887 164.68 26.4606 161.164 28.7721C157.674 31.0656 154.526 33.8898 151.872 37.1098C150.685 38.5489 149.606 40.0599 148.626 41.6339C148.437 41.8948 148.257 42.1556 148.095 42.4254C147.231 41.9487 146.377 41.463 145.513 40.9863C145.612 40.8334 145.711 40.6625 145.81 40.4916ZM144.065 83.5562C143.571 82.5669 143.067 81.4786 142.698 80.5522C141.826 78.4115 141.115 76.2079 140.585 73.9594C140.036 71.6388 139.694 69.4532 139.514 67.1327C139.146 62.3387 139.514 57.6347 140.648 53.0207C141.646 48.9463 143.139 45.1867 145.199 41.571C146.044 42.0746 146.899 42.5873 147.744 43.091C147.672 43.2349 147.6 43.3788 147.537 43.5317C146.773 44.9258 146.08 46.3649 145.469 47.84C143.823 51.8424 142.833 56.0967 142.5 60.405C142.168 64.7852 142.518 69.2194 143.553 73.4917C144.452 77.2063 145.882 80.795 147.762 84.1139C147.366 84.3477 146.971 84.5906 146.575 84.8244C145.9 83.6282 145.271 82.405 144.713 81.1548L144.38 81.2987C144.947 82.5669 145.576 83.7991 146.26 85.0133C145.9 85.2292 145.54 85.436 145.19 85.6519C144.794 84.9504 144.416 84.2578 144.065 83.5562ZM171.804 106.555C167.397 105.304 163.331 103.443 159.464 100.897C155.767 98.4598 152.412 95.4557 149.543 91.9749C148.158 90.302 146.854 88.4581 145.693 86.5064C145.63 86.4074 145.576 86.2995 145.513 86.2006C145.873 85.9937 146.242 85.7958 146.602 85.589C147.321 86.8032 148.095 87.9814 148.922 89.1237L149.21 88.9078C148.392 87.7836 147.618 86.6143 146.917 85.4091C147.321 85.1842 147.726 84.9594 148.131 84.7345C148.212 84.8694 148.284 85.0043 148.365 85.1302C150.532 88.701 153.24 91.9569 156.361 94.7271C159.482 97.4974 163.016 99.8089 166.821 101.527C170.742 103.299 174.916 104.45 179.188 104.954C180.663 105.125 182.147 105.214 183.631 105.232C183.64 106.231 183.658 107.229 183.676 108.228C179.638 108.21 175.725 107.661 171.804 106.555ZM220.373 89.4835C217.881 92.9912 214.59 96.4181 211.181 99.0174C207.592 101.761 203.545 103.991 199.407 105.511C194.964 107.139 190.395 108.03 185.736 108.21C185.268 108.228 184.8 108.237 184.333 108.237C184.351 107.238 184.36 106.24 184.378 105.241C187.049 105.214 189.72 104.945 192.338 104.414C196.511 103.569 200.549 102.066 204.273 99.9978C207.907 97.9741 211.235 95.3927 214.113 92.3796C216.316 90.0681 218.268 87.5047 219.887 84.7525C220.292 84.9773 220.697 85.2022 221.101 85.4271C220.4 86.6143 219.644 87.7746 218.826 88.8898L219.114 89.1057C219.932 87.9724 220.706 86.8032 221.407 85.6069C221.767 85.8138 222.136 86.0117 222.495 86.2186C221.839 87.3248 221.137 88.4221 220.373 89.4835Z" fill="#F2F2F2"/>
<path d="M154.993 95.8694C157.242 97.8931 159.715 99.692 162.333 101.203L162.513 100.888C159.922 99.3862 157.467 97.6143 155.236 95.5996L154.993 95.8694Z" fill="#F2F2F2"/>
<path d="M155.173 31.6683L154.931 31.3984C152.682 33.4311 150.649 35.6977 148.868 38.1441L149.156 38.351C150.928 35.9315 152.943 33.683 155.173 31.6683Z" fill="#F2F2F2"/>
<path d="M170.733 104.54L170.626 104.882C173.495 105.817 176.481 106.447 179.503 106.752L179.539 106.393C176.535 106.096 173.576 105.466 170.733 104.54Z" fill="#F2F2F2"/>
<path d="M170.644 22.701L170.536 22.3592C167.666 23.2946 164.878 24.5448 162.261 26.0648L162.441 26.3796C165.031 24.8596 167.801 23.6274 170.644 22.701Z" fill="#F2F2F2"/>
<path d="M144.668 46.149L144.335 46.0051C143.103 48.7664 142.168 51.6715 141.547 54.6306L141.898 54.7026C142.518 51.7705 143.454 48.8923 144.668 46.149Z" fill="#F2F2F2"/>
<path d="M140.621 63.6519C140.621 66.692 140.944 69.723 141.565 72.6732L141.916 72.6012C141.295 69.6781 140.98 66.674 140.971 63.6609L140.621 63.6519Z" fill="#F2F2F2"/>
<path d="M226.075 54.5767L226.426 54.5047C225.796 51.5456 224.843 48.6495 223.611 45.8882L223.278 46.0321C224.51 48.7664 225.455 51.6445 226.075 54.5767Z" fill="#F2F2F2"/>
<path d="M226.093 72.5473L226.444 72.6192C227.065 69.6691 227.379 66.638 227.379 63.5979V63.508H227.02V63.5979C227.029 66.62 226.714 69.6331 226.093 72.5473Z" fill="#F2F2F2"/>
<path d="M218.763 38.2521L219.051 38.0362C217.27 35.5988 215.219 33.3322 212.971 31.3085L212.728 31.5783C214.967 33.593 217 35.8326 218.763 38.2521Z" fill="#F2F2F2"/>
<path d="M188.524 106.393L188.56 106.752C191.573 106.438 194.559 105.808 197.428 104.873L197.321 104.531C194.469 105.457 191.51 106.087 188.524 106.393Z" fill="#F2F2F2"/>
<path d="M205.631 25.9929C203.005 24.4818 200.217 23.2406 197.338 22.3142L197.231 22.656C200.082 23.5734 202.852 24.8056 205.451 26.3077L205.631 25.9929Z" fill="#F2F2F2"/>
<path d="M205.532 100.87L205.712 101.185C208.33 99.674 210.794 97.8751 213.043 95.8514L212.8 95.5816C210.569 97.5873 208.123 99.3682 205.532 100.87Z" fill="#F2F2F2"/>
<path d="M185.16 88.5121C185.115 93.0362 185.052 97.5693 184.98 102.093C188.335 101.644 190.926 98.7746 190.926 95.2938C190.926 91.867 188.434 89.0338 185.16 88.5121Z" fill="#F2F2F2"/>
<path d="M183.02 102.075C182.948 97.5693 182.885 93.0542 182.84 88.5391C179.629 89.1147 177.191 91.9209 177.191 95.2938C177.2 98.7206 179.728 101.572 183.02 102.075Z" fill="#F2F2F2"/>
<path d="M156.361 54.4238C158.438 54.4238 160.3 53.4974 161.559 52.0313C157.683 49.7378 153.806 47.4352 149.939 45.1147C149.651 45.8702 149.489 46.6977 149.489 47.5522C149.498 51.3477 152.565 54.4238 156.361 54.4238Z" fill="#F2F2F2"/>
<path d="M163.223 47.5611C163.223 43.7656 160.147 40.6985 156.361 40.6985C154.13 40.6985 152.142 41.7688 150.883 43.4238C154.841 45.6274 158.798 47.84 162.747 50.0616C163.061 49.2791 163.223 48.4426 163.223 47.5611Z" fill="#F2F2F2"/>
<path d="M211.648 40.5726C207.853 40.5726 204.786 43.6486 204.786 47.4352C204.786 48.3526 204.966 49.2341 205.298 50.0346C209.256 47.804 213.222 45.5914 217.189 43.3788C215.93 41.6789 213.915 40.5726 211.648 40.5726Z" fill="#F2F2F2"/>
<path d="M218.097 45.0967C214.239 47.4082 210.38 49.7108 206.513 51.9953C207.772 53.4074 209.607 54.3069 211.648 54.3069C215.444 54.3069 218.511 51.2308 218.511 47.4442C218.511 46.6167 218.367 45.8253 218.097 45.0967Z" fill="#F2F2F2"/>
<path d="M15.1572 139.557H14.72C10.3842 139.557 7.01386 146.37 4.99168 158.412H4.15366L5.81148 137.116H30.2598L31.9176 158.412H31.0978C29.0756 146.37 25.7053 139.557 21.3695 139.557H20.8412V175.519C20.8412 183.152 22.335 183.844 23.5921 184.719V185.502H12.3881V184.719C13.6634 183.844 15.139 183.152 15.139 175.519V139.557H15.1572Z" fill="#F2F2F2"/>
<path d="M35.5794 148.939C35.5794 145.532 34.96 144.257 33.703 143.237V142.362H43.158V143.237C41.8828 144.257 41.2816 145.532 41.2816 148.939V159.013H50.9188V148.939C50.9188 145.532 50.2994 144.257 49.0424 143.237V142.362H58.4974V143.237C57.2222 144.257 56.621 145.532 56.621 148.939V173.442C56.621 176.849 57.2404 178.124 58.4974 179.144V180.018H49.0424V179.144C50.3176 178.124 50.9188 176.849 50.9188 173.442V161.946H41.2816V173.442C41.2816 176.849 41.901 178.124 43.158 179.144V180.018H33.703V179.144C34.9782 178.124 35.5794 176.849 35.5794 173.442V148.939Z" fill="#F2F2F2"/>
<path d="M62.1228 148.939C62.1228 145.532 61.5034 144.257 60.2463 143.237V142.362H78.5188L80.0127 152.163H79.1746C77.8083 148.301 77.2982 144.986 71.341 144.986H67.8432V156.299H70.9949C73.6729 156.153 74.1465 154.914 74.4198 152.947H75.2578V162.602H74.4198C74.1647 160.617 73.6729 159.378 70.9949 159.25H67.8432V177.377H72.179C76.9885 177.377 78.7921 171.128 80.0673 165.645H80.9053L79.0289 180.037H60.2281V179.162C61.5034 178.142 62.1046 176.867 62.1046 173.46V148.939H62.1228Z" fill="#F2F2F2"/>
<path d="M105.773 178.543C105.809 178.725 105.809 178.871 105.864 179.053C105.864 178.871 105.9 178.725 105.955 178.543L111.821 144.239C112.513 140.231 112.131 138.956 110.983 137.99V137.116H117.632V137.99C116.23 138.956 115.537 140.249 114.827 144.239L108.961 178.543C108.305 182.314 108.742 183.607 109.835 184.609V185.484H99.196V184.609C100.289 183.589 100.635 182.314 100.07 178.543L94.7691 144.239C94.1497 140.231 93.6214 138.956 92.2368 137.99V137.116H101.255V137.99C100.107 138.956 99.8519 140.249 100.471 144.239L105.773 178.543Z" fill="#F2F2F2"/>
<path d="M138.638 152.528V169.962C138.638 176.211 135.796 180.492 128.345 180.492C120.893 180.492 118.088 176.211 118.088 169.962V152.528C118.088 146.589 120.985 141.907 128.472 141.907C135.96 141.907 138.638 146.589 138.638 152.528ZM132.589 170.691V151.781C132.589 148.429 131.533 144.84 128.345 144.84C125.138 144.84 124.136 148.429 124.136 151.781V170.691C124.136 174.553 125.575 177.541 128.436 177.541C131.296 177.541 132.589 174.553 132.589 170.691Z" fill="#F2F2F2"/>
<path d="M152.775 172.658L156.546 149.704C156.327 145.514 155.544 144.239 154.141 143.218V142.344H163.869V143.218C162.867 144.239 162.375 145.514 163.031 149.704L166.802 172.658L170.573 149.577C171.193 145.569 170.792 144.239 169.735 143.237V142.362H176.604V143.237C175.11 144.257 174.29 145.587 173.67 149.577L169.954 172.622C169.335 176.63 169.699 178.142 170.737 179.144V180.018H160.317V179.144C161.373 178.124 161.72 176.666 161.1 172.658L158.477 156.153L155.799 172.75C155.143 176.757 155.544 178.124 156.582 179.144V180.018H146.253V179.144C147.309 178.124 147.747 176.703 147.091 172.713L143.32 149.577C142.664 145.569 141.88 144.239 140.387 143.237V142.362H149.842V143.237C148.785 144.257 148.311 145.587 148.967 149.577L152.775 172.658Z" fill="#F2F2F2"/>
<path d="M208.977 152.528V169.962C208.977 176.211 206.135 180.492 198.684 180.492C191.232 180.492 188.427 176.211 188.427 169.962V152.528C188.427 146.589 191.324 141.907 198.811 141.907C206.299 141.907 208.977 146.589 208.977 152.528ZM202.928 170.691V151.781C202.928 148.429 201.872 144.84 198.684 144.84C195.477 144.84 194.475 148.429 194.475 151.781V170.691C194.475 174.553 195.914 177.541 198.775 177.541C201.617 177.541 202.928 174.553 202.928 170.691Z" fill="#F2F2F2"/>
<path d="M213.476 148.939C213.476 145.532 212.857 144.257 211.6 143.237V142.362H229.854L231.348 153.074H230.51C229.672 150.178 228.543 144.986 222.749 144.986L219.16 144.931V156.299H222.312C224.99 156.153 225.464 154.914 225.737 152.947H226.575V162.602H225.737C225.482 160.617 224.99 159.378 222.312 159.25H219.16V173.46C219.16 176.867 219.78 178.142 221.037 179.162V180.037H211.582V179.162C212.857 178.142 213.458 176.867 213.458 173.46V148.939H213.476Z" fill="#F2F2F2"/>
<path d="M245.503 147.099C245.503 139.466 244.01 138.773 242.752 137.899V137.116H250.896L261.845 173.351V147.099C261.845 139.466 260.351 138.773 259.094 137.899V137.116H267.674V137.899C266.399 138.773 264.924 139.466 264.924 147.099V175.519C264.924 183.152 266.417 183.844 267.674 184.719V185.502H259.44L248.582 149.959V175.537C248.582 183.17 250.076 183.862 251.333 184.737V185.52H242.752V184.737C244.028 183.862 245.503 183.17 245.503 175.537V147.099Z" fill="#F2F2F2"/>
<path d="M269.405 180.018V179.144C270.899 178.124 271.682 176.521 272.338 172.513L276.055 149.613C276.711 145.605 276.31 144.239 275.271 143.218V142.344H285.747V143.218C284.69 144.239 284.307 145.751 284.963 149.74L288.643 172.367C289.299 176.375 290.137 178.124 291.613 179.126V180H282.285V179.126C283.342 178.106 283.724 176.502 283.069 172.495L282.85 171.11H275.49L275.271 172.495C274.615 176.502 275.016 178.106 276.055 179.126V180H269.405V180.018ZM279.133 148.939L275.982 168.213H282.376L279.133 148.939Z" fill="#F2F2F2"/>
<path d="M305.713 145.805C305.841 145.477 305.968 145.168 306.023 144.986H303.053C297.57 144.986 295.912 152.291 294.783 156.991H293.945L295.22 142.362H313.31V143.237C312.399 144.348 311.561 146.552 310.158 150.451L300.958 176.703C300.831 176.976 300.776 177.213 300.703 177.395H303.509C309.776 177.395 311.179 168.286 312.217 163.786H313.055L311.743 180.018H293.398V179.144C294.236 178.124 295.147 175.883 296.55 171.93L305.713 145.805Z" fill="#F2F2F2"/>
<path d="M316.935 148.939C316.935 145.532 316.316 144.257 315.059 143.237V142.362H324.514V143.237C323.239 144.257 322.638 145.532 322.638 148.939V161.163L331 147.135C332.093 145.35 331.838 143.419 330.253 143.182V142.362H339.015V143.182C337.613 143.273 334.989 145.35 332.657 149.212L329.943 153.803L335.991 173.296C337.139 177.013 338.451 178.215 339.89 179.18V180H329.815V179.18C330.599 178.27 330.963 177.158 329.852 173.333L326.081 160.234L322.619 165.991V173.442C322.619 176.849 323.239 178.124 324.496 179.144V180.018H315.041V179.144C316.316 178.124 316.917 176.849 316.917 173.442V148.939H316.935Z" fill="#F2F2F2"/>
<path d="M341.639 180.018V179.144C343.133 178.124 343.916 176.521 344.572 172.513L348.288 149.613C348.944 145.605 348.543 144.239 347.505 143.218V142.344H357.98V143.218C356.924 144.239 356.541 145.751 357.197 149.74L360.877 172.367C361.533 176.375 362.371 178.124 363.846 179.126V180H354.519V179.126C355.575 178.106 355.958 176.502 355.302 172.495L355.084 171.11H347.724L347.505 172.495C346.849 176.502 347.25 178.106 348.288 179.126V180H341.639V180.018ZM351.367 148.939L348.215 168.213H354.61L351.367 148.939Z" fill="#F2F2F2"/>
<path d="M368 191.842H0V197.307H368V191.842Z" fill="#F2F2F2"/>
</svg>
