<svg width="180" height="55" viewBox="0 0 180 55" fill="none" xmlns="http://www.w3.org/2000/svg">
<path d="M49.661 10.5892C49.901 10.5892 50.028 10.7172 50.028 10.9442V12.8332C50.028 13.0602 49.901 13.1882 49.661 13.1882H42.009V14.9492H48.418C48.643 14.9492 48.785 15.0782 48.785 15.3042V17.0802C48.785 17.3072 48.643 17.4352 48.418 17.4352H42.009V19.2872H49.661C49.901 19.2872 50.028 19.4152 50.028 19.6422V21.5312C50.028 21.7582 49.901 21.8862 49.661 21.8862H39.148C38.908 21.8862 38.781 21.7582 38.781 21.5312V10.9362C38.781 10.7102 38.908 10.5812 39.148 10.5812H49.661V10.5962V10.5892Z" fill="#F2F2F2"/>
<path d="M59.381 21.8942C59.126 21.8942 58.969 21.8112 58.872 21.6072L54.686 13.1732V21.5462C54.686 21.7732 54.544 21.9022 54.319 21.9022H52.08C51.84 21.9022 51.713 21.7732 51.713 21.5462V10.9522C51.713 10.7252 51.84 10.5962 52.08 10.5962H56.281C56.535 10.5962 56.693 10.6792 56.79 10.8842L60.976 19.3322V10.9442C60.976 10.7172 61.118 10.5892 61.358 10.5892H63.582C63.821 10.5892 63.949 10.7172 63.949 10.9442V21.5392C63.949 21.7662 63.821 21.8942 63.582 21.8942H59.381Z" fill="#F2F2F2"/>
<path d="M65.551 13.1812C65.312 13.1812 65.184 13.0522 65.184 12.8262V10.9362C65.184 10.7102 65.312 10.5812 65.551 10.5812H76.431C76.671 10.5812 76.798 10.7102 76.798 10.9362V12.8262C76.798 13.0522 76.671 13.1812 76.431 13.1812H72.613V21.5392C72.613 21.7662 72.47 21.8942 72.246 21.8942H69.752C69.512 21.8942 69.385 21.7662 69.385 21.5392V13.1812H65.551Z" fill="#F2F2F2"/>
<path d="M89.805 13.1662V15.4102C89.805 17.2162 89.019 18.1532 87.139 18.1532H87.095L90.165 21.5242C90.292 21.6672 90.21 21.8792 90.037 21.8792H86.892C86.585 21.8792 86.458 21.8112 86.286 21.6072L83.538 18.3202H81.299V21.5312C81.299 21.7582 81.156 21.8862 80.917 21.8862H78.438C78.199 21.8862 78.071 21.7582 78.071 21.5312V10.9362C78.071 10.7102 78.199 10.5812 78.438 10.5812H87.162C89.034 10.5962 89.813 11.3752 89.813 13.1812L89.805 13.1662ZM81.269 15.7122H85.485C86.413 15.7122 86.555 15.5692 86.555 14.7902V14.0952C86.555 13.3242 86.413 13.1732 85.485 13.1732H81.269V15.7122Z" fill="#F2F2F2"/>
<path d="M103.486 19.3102C103.486 21.1162 102.685 21.8862 100.82 21.8862H93.984C92.127 21.8862 91.295 21.1162 91.295 19.3102V13.1812C91.295 11.3752 92.127 10.6042 93.984 10.6042H100.82C102.692 10.6042 103.486 11.3752 103.486 13.1812V19.3102ZM100.259 14.2162C100.259 13.3472 100.087 13.1812 99.031 13.1812H95.773C94.733 13.1812 94.545 13.3402 94.545 14.2162V18.2522C94.545 19.1212 94.74 19.2872 95.773 19.2872H99.031C100.087 19.2872 100.259 19.1282 100.259 18.2522V14.2162Z" fill="#F2F2F2"/>
<path d="M117.039 13.1662V15.8562C117.039 17.6622 116.239 18.4332 114.374 18.4332H108.608V21.5162C108.608 21.7432 108.466 21.8712 108.227 21.8712H105.748C105.508 21.8712 105.381 21.7432 105.381 21.5162V10.9212C105.381 10.6952 105.508 10.5662 105.748 10.5662H114.396C116.254 10.5812 117.048 11.3602 117.048 13.1662H117.039ZM108.586 15.8412H112.727C113.655 15.8412 113.797 15.6972 113.797 14.9192V14.0952C113.797 13.3242 113.655 13.1732 112.727 13.1732H108.586V15.8412Z" fill="#F2F2F2"/>
<path d="M122.267 17.7752L117.548 10.9362C117.436 10.7782 117.519 10.5812 117.706 10.5812H120.776C121.031 10.5812 121.158 10.6272 121.301 10.8532L123.936 15.0172L126.572 10.8532C126.715 10.6272 126.857 10.5812 127.119 10.5812H130.047C130.242 10.5812 130.316 10.7782 130.204 10.9362L125.486 17.7752V21.5312C125.486 21.7582 125.344 21.8862 125.119 21.8862H122.626C122.401 21.8862 122.259 21.7582 122.259 21.5312V17.7752H122.267Z" fill="#F2F2F2"/>
<path d="M139.19 18.2592C139.19 19.1282 139.385 19.2942 140.418 19.2942H143.248C144.304 19.2942 144.476 19.1362 144.476 18.2592V10.9362C144.476 10.7102 144.604 10.5812 144.843 10.5812H147.351C147.577 10.5812 147.719 10.7102 147.719 10.9362V19.3102C147.719 21.1162 146.917 21.8862 145.052 21.8862H138.643C136.771 21.8862 135.955 21.1162 135.955 19.3102V10.9362C135.955 10.7102 136.082 10.5812 136.321 10.5812H138.815C139.055 10.5812 139.182 10.7102 139.182 10.9362V18.2592H139.19Z" fill="#F2F2F2"/>
<path d="M157.326 21.8942C157.071 21.8942 156.914 21.8112 156.817 21.6072L152.63 13.1732V21.5462C152.63 21.7732 152.489 21.9022 152.264 21.9022H150.025C149.785 21.9022 149.658 21.7732 149.658 21.5462V10.9522C149.658 10.7252 149.785 10.5962 150.025 10.5962H154.226C154.48 10.5962 154.638 10.6792 154.735 10.8842L158.921 19.3322V10.9442C158.921 10.7172 159.063 10.5892 159.303 10.5892H161.527C161.766 10.5892 161.894 10.7172 161.894 10.9442V21.5392C161.894 21.7662 161.766 21.8942 161.527 21.8942H157.326Z" fill="#F2F2F2"/>
<path d="M167.158 21.5392C167.158 21.7662 167.016 21.8942 166.776 21.8942H164.298C164.057 21.8942 163.93 21.7662 163.93 21.5392V10.9442C163.93 10.7172 164.057 10.5892 164.298 10.5892H166.776C167.016 10.5892 167.158 10.7172 167.158 10.9442V21.5392Z" fill="#F2F2F2"/>
<path d="M172.571 13.1812H168.753C168.513 13.1812 168.386 13.0522 168.386 12.8262V10.9362C168.386 10.7102 168.513 10.5812 168.753 10.5812H179.633C179.873 10.5812 180 10.7102 180 10.9362V12.8262C180 13.0522 179.873 13.1812 179.633 13.1812H175.8V21.5392C175.8 21.7662 175.657 21.8942 175.432 21.8942H172.939C172.699 21.8942 172.571 21.7662 172.571 21.5392V13.1812Z" fill="#F2F2F2"/>
<path d="M20.016 33.3432C18.758 33.3432 17.739 32.3152 17.739 31.0452C17.739 29.7762 18.758 28.7482 20.016 28.7482C20.413 28.7482 20.795 28.8542 21.124 29.0352L21.903 25.5142L19.933 23.5262C19.851 23.5412 19.776 23.5412 19.694 23.5412C18.436 23.5412 17.417 22.5142 17.417 21.2442C17.417 21.1612 17.417 21.0852 17.432 21.0022L15.463 19.0152L13.494 21.0022C13.509 21.0852 13.509 21.1612 13.509 21.2592C13.509 22.5292 12.49 23.5562 11.232 23.5562C11.15 23.5562 11.06 23.5562 10.978 23.5412L9.008 25.5292L9.787 29.0502C10.116 28.8692 10.498 28.7632 10.895 28.7632C12.153 28.7632 13.172 29.7912 13.172 31.0612C13.172 32.3302 12.153 33.3582 10.895 33.3582C10.85 33.3582 10.79 33.3582 10.745 33.3432L15.448 54.4802L20.151 33.3432H20.016Z" fill="#C70039"/>
<path d="M17.44 10.9672C17.44 9.69724 18.458 8.66924 19.716 8.66924C19.799 8.66924 19.889 8.66924 19.971 8.68424L21.94 6.69724L19.971 4.71024C19.889 4.72524 19.814 4.72524 19.731 4.72524C18.473 4.72524 17.455 3.69724 17.455 2.42724C17.455 2.34424 17.455 2.26924 17.47 2.18524L15.493 0.198242L13.524 2.18524C13.539 2.26924 13.539 2.34424 13.539 2.44224C13.539 3.71224 12.52 4.74024 11.262 4.74024C11.18 4.74024 11.09 4.74024 11.008 4.72524L9.038 6.71224L10.993 8.68424C11.075 8.66924 11.165 8.66924 11.247 8.66924C12.505 8.66924 13.524 9.69724 13.524 10.9672C13.524 11.0572 13.524 11.1402 13.509 11.2242L15.478 13.2112L17.447 11.2242V10.9672H17.44Z" fill="#C70039"/>
<path d="M20.293 18.1082C21.551 18.1082 22.569 19.1362 22.569 20.4052C22.569 20.4882 22.569 20.5792 22.554 20.6622L24.524 22.6502L26.493 20.6622C26.478 20.5792 26.478 20.5042 26.478 20.4202C26.478 19.1512 27.496 18.1232 28.754 18.1232C28.837 18.1232 28.912 18.1232 28.994 18.1382L30.963 16.1432L28.994 14.1562C28.912 14.1712 28.837 14.1712 28.74 14.1712C27.481 14.1712 26.463 13.1432 26.463 11.8732C26.463 11.7902 26.463 11.7002 26.478 11.6172L24.509 9.62924L22.554 11.6012C22.569 11.6852 22.569 11.7752 22.569 11.8582C22.569 13.1282 21.551 14.1562 20.293 14.1562C20.203 14.1562 20.121 14.1562 20.038 14.1412L18.069 16.1362L20.038 18.1232C20.128 18.1082 20.211 18.1082 20.293 18.1082Z" fill="#C70039"/>
<path d="M2.209 18.1082C3.467 18.1082 4.485 19.1362 4.485 20.4052C4.485 20.4882 4.485 20.5792 4.47 20.6622L6.44 22.6502L8.409 20.6622C8.394 20.5792 8.394 20.5042 8.394 20.4202C8.394 19.1512 9.413 18.1232 10.671 18.1232C10.753 18.1232 10.828 18.1232 10.91 18.1382L12.88 16.1432L10.91 14.1562C10.828 14.1712 10.753 14.1712 10.656 14.1712C9.398 14.1712 8.379 13.1432 8.379 11.8732C8.379 11.7902 8.379 11.7002 8.394 11.6172L6.425 9.62924L4.47 11.6012C4.485 11.6852 4.485 11.7752 4.485 11.8582C4.485 13.1282 3.467 14.1562 2.209 14.1562C2.119 14.1562 2.037 14.1562 1.954 14.1412L0 16.1362L1.969 18.1232C2.052 18.1082 2.127 18.1082 2.209 18.1082Z" fill="#C70039"/>
<path d="M38.766 28.2272V27.7282H39.837V27.1232C39.837 26.2852 40.309 26.0052 41.23 26.0052C41.484 26.0052 41.806 26.0282 42.023 26.0502V26.5872C41.806 26.5642 41.574 26.5422 41.365 26.5422C40.743 26.5422 40.556 26.6932 40.556 27.2062V27.7282H41.964V28.2042H40.556V32.1942H39.852V28.2272H38.766Z" fill="#F2F2F2"/>
<path d="M42.36 27.7282H43.064V28.7632H43.087C43.341 28.2272 43.813 27.6002 44.989 27.6002C45.183 27.6002 45.311 27.6222 45.416 27.6452V28.2952C45.198 28.2492 44.989 28.2492 44.772 28.2492C44 28.2492 43.079 28.6802 43.079 29.9572V32.2472H42.375V27.7362H42.353L42.36 27.7282Z" fill="#F2F2F2"/>
<path d="M48.531 27.6002C50.433 27.6002 51.354 28.7182 51.354 29.9722C51.354 31.2272 50.455 32.3452 48.531 32.3452C46.606 32.3452 45.708 31.2272 45.708 29.9722C45.708 28.7182 46.629 27.6002 48.531 27.6002ZM48.531 31.8242C49.856 31.8242 50.65 31.0452 50.65 29.9872C50.65 28.9302 49.879 28.1512 48.531 28.1512C47.183 28.1512 46.412 28.9302 46.412 29.9872C46.412 31.0452 47.183 31.8242 48.531 31.8242Z" fill="#F2F2F2"/>
<path d="M60.01 29.3682C60.01 28.5522 59.561 28.1132 58.535 28.1132C57.442 28.1132 56.843 28.6732 56.843 29.5572V32.2092H56.139V29.1712C56.139 28.6122 55.689 28.1132 54.731 28.1132C53.772 28.1132 52.979 28.6352 52.979 29.6702V32.1942H52.275V27.7282H52.979V28.5442H53.001C53.301 28.0682 53.832 27.5772 54.971 27.5772C56.109 27.5772 56.595 28.1132 56.745 28.5672C56.977 28.1132 57.704 27.5772 58.692 27.5772C60.085 27.5772 60.721 28.2272 60.721 29.1342V32.1942H60.018V29.3682H60.01Z" fill="#F2F2F2"/>
<path d="M69.505 30.6222C69.378 31.2042 68.801 32.3682 67.004 32.3682C65.207 32.3682 64.203 31.4012 64.203 29.9952C64.203 28.5892 65.124 27.6222 67.004 27.6222C68.696 27.6222 69.355 28.5742 69.483 29.2172H68.756C68.539 28.4382 67.88 28.1362 66.981 28.1362C65.574 28.1362 64.885 28.9522 64.885 29.9722C64.885 31.0912 65.634 31.8092 66.981 31.8092C68.03 31.8092 68.606 31.2872 68.779 30.6002H69.505V30.6222Z" fill="#F2F2F2"/>
<path d="M70.269 26.0052H70.973V28.6122H70.995C71.212 28.1362 71.954 27.6002 73.047 27.6002C74.694 27.6002 75.181 28.3782 75.181 29.4362V32.2172H74.477V29.3232C74.477 28.4382 73.878 28.1132 72.979 28.1132C71.587 28.1132 70.973 28.7632 70.973 29.7762V32.2172H70.269V26.0052Z" fill="#F2F2F2"/>
<path d="M76.237 29.1112C76.342 28.1592 76.896 27.6002 78.611 27.6002C80.325 27.6002 80.879 28.0762 80.879 28.9142V31.2652C80.879 31.6352 80.984 31.7632 81.261 31.7632C81.389 31.7632 81.516 31.7632 81.628 31.7412V32.1712C81.478 32.1942 81.261 32.2392 81.029 32.2392C80.325 32.2392 80.28 31.8092 80.258 31.4382H80.235C80.018 31.7412 79.532 32.3452 77.929 32.3452C77.075 32.3452 76.005 31.9982 76.005 31.0082C76.005 29.7992 77.397 29.6472 78.483 29.6022C80.026 29.5192 80.213 29.4512 80.213 28.9982C80.213 28.3482 79.741 28.1132 78.566 28.1132C77.457 28.1132 76.918 28.3702 76.873 29.1032H76.229L76.237 29.1112ZM80.235 29.7992C79.913 29.9722 79.442 30.0182 78.034 30.1462C77.225 30.2142 76.731 30.4482 76.731 30.9622C76.731 31.6502 77.39 31.8692 78.161 31.8692C79.12 31.8692 80.235 31.3932 80.235 30.4862V29.7992Z" fill="#F2F2F2"/>
<path d="M84.743 27.6002C86.645 27.6002 87.566 28.7182 87.566 29.9722C87.566 31.2272 86.668 32.3452 84.743 32.3452C82.819 32.3452 81.92 31.2272 81.92 29.9722C81.943 28.7182 82.841 27.6002 84.743 27.6002ZM84.743 31.8242C86.069 31.8242 86.862 31.0452 86.862 29.9872C86.862 28.9302 86.091 28.1512 84.743 28.1512C83.395 28.1512 82.624 28.9302 82.624 29.9872C82.647 31.0452 83.418 31.8242 84.743 31.8242Z" fill="#F2F2F2"/>
<path d="M92.164 29.0662C91.992 28.3332 91.483 28.1362 90.457 28.1362C89.708 28.1362 89.027 28.2872 89.027 28.9142C89.027 29.3912 89.371 29.4742 90.861 29.6472C92.381 29.8212 92.995 30.0782 92.995 30.9402C92.995 31.8012 92.202 32.3602 90.644 32.3602C89.086 32.3602 88.143 31.8842 88.143 30.8262H88.787C88.914 31.5822 89.386 31.8392 90.644 31.8392C91.625 31.8392 92.291 31.6652 92.291 30.9772C92.291 30.5242 91.924 30.3282 90.389 30.1992C88.854 30.0712 88.293 29.7232 88.293 28.9452C88.293 28.1662 88.997 27.6302 90.427 27.6302C92.029 27.6302 92.696 28.1512 92.778 29.0962H92.157V29.0502L92.164 29.0662Z" fill="#F2F2F2"/>
<path d="M97.608 26.3302V27.7362H99.016V28.2122H97.608V31.1892C97.608 31.5742 97.735 31.7482 98.312 31.7482C98.656 31.7482 98.866 31.7262 99.016 31.7032V32.2392C98.761 32.2852 98.484 32.2852 98.244 32.2852C97.151 32.2852 96.919 31.8992 96.919 31.1662V28.2122H95.848V27.7362H96.919V26.3302H96.897H97.608Z" fill="#F2F2F2"/>
<path d="M102.423 27.6002C104.325 27.6002 105.246 28.7182 105.246 29.9722C105.246 31.2272 104.347 32.3452 102.423 32.3452C100.498 32.3452 99.6 31.2272 99.6 29.9722C99.622 28.7182 100.521 27.6002 102.423 27.6002ZM102.423 31.8242C103.748 31.8242 104.542 31.0452 104.542 29.9872C104.542 28.9302 103.771 28.1512 102.423 28.1512C101.075 28.1512 100.304 28.9302 100.304 29.9872C100.326 31.0452 101.097 31.8242 102.423 31.8242Z" fill="#F2F2F2"/>
<path d="M114.007 30.7962C113.73 31.5972 112.981 32.3682 111.334 32.3682C109.304 32.3682 108.638 31.0982 108.638 29.9952C108.638 28.7412 109.492 27.6222 111.334 27.6222C112.614 27.6222 114.134 28.1212 114.134 30.1462H109.349C109.349 31.0762 110.075 31.8312 111.334 31.8312C112.51 31.8312 113.041 31.4842 113.303 30.7962H114.007ZM113.431 29.6552C113.236 28.5522 112.337 28.1442 111.401 28.1442C110.465 28.1442 109.522 28.5742 109.372 29.6552H113.431Z" fill="#F2F2F2"/>
<path d="M119.047 27.7282H119.818L117.489 32.2172H116.717L114.389 27.7282H115.16L117.107 31.4842L119.054 27.7282H119.047Z" fill="#F2F2F2"/>
<path d="M122.94 27.6002C124.843 27.6002 125.764 28.7182 125.764 29.9722C125.764 31.2272 124.865 32.3452 122.94 32.3452C121.016 32.3452 120.117 31.2272 120.117 29.9722C120.117 28.7182 121.016 27.6002 122.94 27.6002ZM122.94 31.8242C124.266 31.8242 125.06 31.0452 125.06 29.9872C125.06 28.9302 124.288 28.1512 122.94 28.1512C121.592 28.1512 120.821 28.9302 120.821 29.9872C120.821 31.0452 121.592 31.8242 122.94 31.8242Z" fill="#F2F2F2"/>
<path d="M126.64 26.0052H127.344V32.2172H126.64V26.0052Z" fill="#F2F2F2"/>
<path d="M132.623 31.3332C132.39 31.8092 131.641 32.3452 130.549 32.3452C128.901 32.3452 128.414 31.5672 128.414 30.5092V27.7282H129.118V30.6222C129.118 31.5062 129.718 31.8312 130.615 31.8312C132.009 31.8312 132.623 31.1822 132.623 30.1692V27.7282H133.326V32.2172H132.623V31.3332Z" fill="#F2F2F2"/>
<path d="M135.595 26.3302V27.7362H137.003V28.2122H135.595V31.1892C135.595 31.5742 135.722 31.7482 136.299 31.7482C136.643 31.7482 136.853 31.7262 137.003 31.7032V32.2392C136.748 32.2852 136.472 32.2852 136.231 32.2852C135.139 32.2852 134.907 31.8992 134.907 31.1662V28.2122H133.835V27.7362H134.907V26.3302H134.884H135.595Z" fill="#F2F2F2"/>
<path d="M137.752 26.0052H138.456V26.9572H137.752V26.0052ZM137.752 27.7282H138.456V32.2172H137.752V27.7282Z" fill="#F2F2F2"/>
<path d="M142.178 27.6002C144.079 27.6002 145.001 28.7182 145.001 29.9722C145.001 31.2272 144.102 32.3452 142.178 32.3452C140.253 32.3452 139.354 31.2272 139.354 29.9722C139.354 28.7182 140.275 27.6002 142.178 27.6002ZM142.178 31.8242C143.502 31.8242 144.296 31.0452 144.296 29.9872C144.296 28.9302 143.526 28.1512 142.178 28.1512C140.83 28.1512 140.058 28.9302 140.058 29.9872C140.058 31.0452 140.83 31.8242 142.178 31.8242Z" fill="#F2F2F2"/>
<path d="M150.107 29.3232C150.107 28.4382 149.508 28.1132 148.61 28.1132C147.217 28.1132 146.603 28.7632 146.603 29.7762V32.2172H145.9V27.7282H146.603V28.6122H146.625C146.843 28.1362 147.584 27.6002 148.677 27.6002C150.324 27.6002 150.811 28.3782 150.811 29.4362V32.2172H150.107V29.3232Z" fill="#F2F2F2"/>
</svg>
