<svg width="238" height="253" viewBox="0 0 238 253" fill="none" xmlns="http://www.w3.org/2000/svg">
<g clip-path="url(#clip0_65_4861)">
<path d="M106.952 16.9518C112.31 6.95632 125.698 6.95632 131.056 16.9518L207.716 160.015C213.074 170.01 206.378 182.504 195.666 182.504H42.3413C31.6298 182.504 24.9334 170.01 30.2915 160.015L106.952 16.9518Z" fill="#161616"/>
<path d="M195.66 191.929H42.3398C34.2489 191.929 26.8552 187.657 22.5688 180.492C18.0296 172.911 17.805 163.36 21.9838 155.564L98.644 12.5016C102.828 4.6961 110.436 0.0352783 119 0.0352783C127.564 0.0352783 135.172 4.6961 139.356 12.5016L216.016 155.569C220.195 163.365 219.97 172.916 215.431 180.497C211.145 187.657 203.756 191.929 195.66 191.929ZM119 18.8751C118.106 18.8751 116.431 19.2027 115.252 21.402L38.5915 164.47C37.3187 166.847 37.8287 169.308 38.7366 170.82C39.2466 171.667 40.3884 173.089 42.3398 173.089H195.66C197.612 173.089 198.758 171.667 199.263 170.82C200.167 169.308 200.681 166.847 199.408 164.47L122.748 21.402C121.569 19.2027 119.894 18.8751 119 18.8751Z" fill="#F2F2F2"/>
<path d="M106.952 16.9518C112.31 6.95632 125.698 6.95632 131.056 16.9518L207.716 160.015C213.074 170.01 206.378 182.504 195.666 182.504H42.3413C31.6298 182.504 24.9334 170.01 30.2915 160.015L106.952 16.9518Z" fill="#161616"/>
<path d="M119.001 26.1003C121.496 26.1003 123.756 27.551 125.038 29.9843L181.108 136.041C182.535 138.737 182.447 142.027 180.874 144.633C179.545 146.842 177.425 148.11 175.067 148.11H62.9312C60.5728 148.11 58.4529 146.842 57.1239 144.633C55.5563 142.031 55.4674 138.737 56.89 136.041L112.96 29.9843C114.247 27.551 116.503 26.1003 118.997 26.1003M118.997 22.9603C115.567 22.9603 112.141 24.8134 110.181 28.5196L54.1103 134.577C50.1935 141.989 55.0883 151.25 62.9266 151.25H175.067C182.9 151.25 187.8 141.989 183.883 134.577L127.813 28.5196C125.852 24.8134 122.427 22.9603 118.997 22.9603Z" fill="#F2F2F2"/>
<path d="M55.341 160.576C55.5984 160.576 55.7341 160.712 55.7341 160.951V162.944C55.7341 163.183 55.5984 163.318 55.341 163.318H47.1893V165.176H54.0121C54.2507 165.176 54.4051 165.312 54.4051 165.551V167.427C54.4051 167.666 54.2507 167.801 54.0121 167.801H47.1893V169.762H55.341C55.5984 169.762 55.7341 169.898 55.7341 170.136V172.13C55.7341 172.369 55.5984 172.504 55.341 172.504H44.1382C43.8809 172.504 43.7451 172.369 43.7451 172.13V160.941C43.7451 160.703 43.8809 160.567 44.1382 160.567H55.341V160.576Z" fill="#F2F2F2"/>
<path d="M65.7109 172.514C65.4395 172.514 65.2663 172.429 65.1634 172.205L60.6944 163.304V172.139C60.6944 172.378 60.54 172.514 60.3013 172.514H57.9148C57.6574 172.514 57.5217 172.378 57.5217 172.139V160.951C57.5217 160.712 57.6574 160.576 57.9148 160.576H62.3978C62.6692 160.576 62.8423 160.66 62.9453 160.885L67.4142 169.804V160.955C67.4142 160.717 67.5687 160.581 67.8214 160.581H70.1892C70.4466 160.581 70.5823 160.717 70.5823 160.955V172.144C70.5823 172.383 70.4466 172.518 70.1892 172.518H65.7062L65.7109 172.514Z" fill="#F2F2F2"/>
<path d="M76.3522 163.323H72.2763C72.0189 163.323 71.8832 163.187 71.8832 162.949V160.955C71.8832 160.717 72.0189 160.581 72.2763 160.581H83.8722C84.1296 160.581 84.2653 160.717 84.2653 160.955V162.949C84.2653 163.187 84.1296 163.323 83.8722 163.323H79.7963V172.139C79.7963 172.378 79.6419 172.514 79.4032 172.514H76.7452C76.4879 172.514 76.3522 172.378 76.3522 172.139V163.323Z" fill="#F2F2F2"/>
<path d="M98.1261 163.304V165.677C98.1261 167.586 97.2884 168.574 95.2762 168.574H95.2247L98.5004 172.139C98.6361 172.294 98.5519 172.514 98.3647 172.514H95.0048C94.6819 172.514 94.5462 172.443 94.359 172.224L91.4249 168.747H89.0384V172.139C89.0384 172.378 88.884 172.514 88.6313 172.514H85.9873C85.7299 172.514 85.5942 172.378 85.5942 172.139V160.951C85.5942 160.712 85.7299 160.576 85.9873 160.576H95.2809C97.2931 160.576 98.1307 161.395 98.1307 163.304H98.1261ZM89.0384 166H93.5401C94.5275 166 94.6819 165.845 94.6819 165.026V164.292C94.6819 163.473 94.5275 163.318 93.5401 163.318H89.0384V166Z" fill="#F2F2F2"/>
<path d="M112.707 169.785C112.707 171.695 111.856 172.514 109.858 172.514H102.576C100.597 172.514 99.7124 171.695 99.7124 169.785V163.304C99.7124 161.395 100.602 160.576 102.576 160.576H109.858C111.851 160.576 112.707 161.395 112.707 163.304V169.785ZM109.263 164.413C109.263 163.492 109.076 163.323 107.948 163.323H104.472C103.362 163.323 103.157 163.492 103.157 164.413V168.676C103.157 169.598 103.362 169.767 104.472 169.767H107.948C109.076 169.767 109.263 169.598 109.263 168.676V164.413Z" fill="#F2F2F2"/>
<path d="M127.153 163.304V166.154C127.153 168.063 126.302 168.882 124.303 168.882H118.145V172.139C118.145 172.378 117.991 172.514 117.738 172.514H115.094C114.837 172.514 114.701 172.378 114.701 172.139V160.951C114.701 160.712 114.837 160.576 115.094 160.576H124.303C126.297 160.576 127.153 161.395 127.153 163.304ZM118.15 166.135H122.567C123.555 166.135 123.709 165.981 123.709 165.162V164.292C123.709 163.473 123.555 163.318 122.567 163.318H118.15V166.135Z" fill="#F2F2F2"/>
<path d="M132.731 168.166L127.701 160.951C127.584 160.782 127.668 160.576 127.869 160.576H131.145C131.416 160.576 131.552 160.628 131.706 160.866L134.519 165.265L137.331 160.866C137.486 160.628 137.64 160.576 137.911 160.576H141.033C141.239 160.576 141.323 160.782 141.206 160.951L136.175 168.166V172.139C136.175 172.378 136.021 172.514 135.782 172.514H133.124C132.886 172.514 132.731 172.378 132.731 172.139V168.166Z" fill="#F2F2F2"/>
<path d="M150.771 168.676C150.771 169.598 150.977 169.767 152.086 169.767H155.104C156.232 169.767 156.419 169.598 156.419 168.676V160.951C156.419 160.712 156.555 160.576 156.812 160.576H159.47C159.709 160.576 159.863 160.712 159.863 160.951V169.785C159.863 171.695 159.012 172.514 157.013 172.514H150.191C148.197 172.514 147.327 171.695 147.327 169.785V160.951C147.327 160.712 147.462 160.576 147.72 160.576H150.378C150.635 160.576 150.771 160.712 150.771 160.951V168.676Z" fill="#F2F2F2"/>
<path d="M170.093 172.514C169.821 172.514 169.648 172.429 169.545 172.205L165.076 163.304V172.139C165.076 172.378 164.922 172.514 164.683 172.514H162.297C162.039 172.514 161.903 172.378 161.903 172.139V160.951C161.903 160.712 162.039 160.576 162.297 160.576H166.78C167.051 160.576 167.224 160.66 167.327 160.885L171.796 169.804V160.955C171.796 160.717 171.95 160.581 172.203 160.581H174.576C174.833 160.581 174.969 160.717 174.969 160.955V172.144C174.969 172.383 174.833 172.518 174.576 172.518H170.093V172.514Z" fill="#F2F2F2"/>
<path d="M180.565 172.139C180.565 172.378 180.411 172.514 180.158 172.514H177.514C177.257 172.514 177.121 172.378 177.121 172.139V160.951C177.121 160.712 177.257 160.576 177.514 160.576H180.158C180.416 160.576 180.565 160.712 180.565 160.951V172.139Z" fill="#F2F2F2"/>
<path d="M186.345 163.323H182.269C182.011 163.323 181.876 163.187 181.876 162.949V160.955C181.876 160.717 182.011 160.581 182.269 160.581H193.865C194.122 160.581 194.258 160.717 194.258 160.955V162.949C194.258 163.187 194.122 163.323 193.865 163.323H189.789V172.139C189.789 172.378 189.634 172.514 189.396 172.514H186.733C186.476 172.514 186.34 172.378 186.34 172.139V163.323H186.345Z" fill="#F2F2F2"/>
<path d="M74.1996 141.081C74.3072 141.081 74.3727 141.142 74.3727 141.245V141.292C74.3727 141.451 74.4429 141.526 74.6114 141.526H76.6563C76.9043 141.526 76.9792 141.451 76.9792 141.264V140.927C76.9792 140.74 76.9043 140.665 76.6563 140.665H74.2183C73.3292 140.665 72.9642 140.304 72.9642 139.462V138.681C72.9642 137.838 73.3339 137.478 74.2183 137.478H77.1664C78.0836 137.478 78.3924 137.773 78.3924 138.657V138.966C78.3924 139.074 78.3316 139.13 78.2193 139.13H77.0915C76.9792 139.13 76.9184 139.069 76.9184 138.966V138.919C76.9184 138.76 76.8482 138.685 76.6704 138.685H74.8079C74.5599 138.685 74.485 138.76 74.485 138.947V139.242C74.485 139.429 74.5599 139.504 74.8079 139.504H77.246C78.1351 139.504 78.5001 139.865 78.5001 140.707V141.535C78.5001 142.377 78.1304 142.738 77.246 142.738H74.1247C73.1982 142.738 72.8987 142.443 72.8987 141.559V141.25C72.8987 141.147 72.9595 141.086 73.0718 141.086H74.1996V141.081Z" fill="white"/>
<path d="M80.3251 142.574C80.3251 142.677 80.2596 142.738 80.1426 142.738H78.9774C78.8651 142.738 78.8042 142.677 78.8042 142.574V137.642C78.8042 137.534 78.8651 137.478 78.9774 137.478H80.1426C80.2549 137.478 80.3251 137.539 80.3251 137.642V142.574Z" fill="white"/>
<path d="M82.5057 138.685H80.7088C80.5965 138.685 80.5357 138.624 80.5357 138.522V137.642C80.5357 137.534 80.5965 137.478 80.7088 137.478H85.8235C85.9358 137.478 85.9967 137.539 85.9967 137.642V138.522C85.9967 138.624 85.9358 138.685 85.8235 138.685H84.0266V142.574C84.0266 142.677 83.9611 142.738 83.8535 142.738H82.6789C82.5666 142.738 82.5057 142.677 82.5057 142.574V138.685Z" fill="white"/>
<path d="M91.3314 137.473C91.4437 137.473 91.5045 137.534 91.5045 137.637V138.517C91.5045 138.62 91.4437 138.681 91.3314 138.681H87.7375V139.5H90.7464C90.8494 139.5 90.9196 139.56 90.9196 139.663V140.492C90.9196 140.595 90.854 140.655 90.7464 140.655H87.7375V141.521H91.3314C91.4437 141.521 91.5045 141.582 91.5045 141.685V142.565C91.5045 142.668 91.4437 142.728 91.3314 142.728H86.3898C86.2775 142.728 86.2166 142.668 86.2166 142.565V137.632C86.2166 137.525 86.2775 137.469 86.3898 137.469H91.3314V137.473Z" fill="white"/>
<path d="M95.1358 142.574C95.1358 142.677 95.0703 142.738 94.9533 142.738H93.7881C93.6758 142.738 93.615 142.677 93.615 142.574V137.642C93.615 137.534 93.6758 137.478 93.7881 137.478H94.9533C95.0656 137.478 95.1358 137.539 95.1358 137.642V142.574Z" fill="white"/>
<path d="M99.1509 142.738C99.0292 142.738 98.9543 142.7 98.9122 142.602L96.9421 138.676V142.569C96.9421 142.672 96.8766 142.733 96.769 142.733H95.7161C95.6038 142.733 95.5429 142.672 95.5429 142.569V137.637C95.5429 137.529 95.6038 137.473 95.7161 137.473H97.6955C97.8172 137.473 97.8921 137.511 97.9342 137.609L99.9043 141.54V137.637C99.9043 137.529 99.9698 137.473 100.087 137.473H101.13C101.243 137.473 101.303 137.534 101.303 137.637V142.569C101.303 142.672 101.243 142.733 101.13 142.733H99.1509V142.738Z" fill="white"/>
<path d="M107.457 137.473C108.501 137.473 109.118 138.054 109.118 139.06V141.151C109.118 142.158 108.501 142.738 107.457 142.738H103.727C103.615 142.738 103.554 142.677 103.554 142.574V137.642C103.554 137.534 103.615 137.478 103.727 137.478H107.457V137.473ZM105.075 141.526H106.91C107.415 141.526 107.602 141.376 107.602 140.946V139.261C107.602 138.84 107.415 138.681 106.91 138.681H105.075V141.526Z" fill="white"/>
<path d="M114.579 137.473C114.692 137.473 114.752 137.534 114.752 137.637V138.517C114.752 138.62 114.692 138.681 114.579 138.681H110.985V139.5H113.994C114.097 139.5 114.168 139.56 114.168 139.663V140.492C114.168 140.595 114.102 140.655 113.994 140.655H110.985V141.521H114.579C114.692 141.521 114.752 141.582 114.752 141.685V142.565C114.752 142.668 114.692 142.728 114.579 142.728H109.638C109.525 142.728 109.465 142.668 109.465 142.565V137.632C109.465 137.525 109.525 137.469 109.638 137.469H114.579V137.473Z" fill="white"/>
<path d="M117.059 142.738C116.924 142.738 116.858 142.686 116.811 142.579L114.869 137.646C114.832 137.548 114.879 137.473 114.972 137.473H116.273C116.409 137.473 116.484 137.525 116.521 137.632L117.944 141.549L119.371 137.632C119.409 137.529 119.479 137.473 119.61 137.473H120.85C120.948 137.473 120.995 137.548 120.957 137.646L119.011 142.579C118.973 142.686 118.903 142.738 118.772 142.738H117.059Z" fill="white"/>
<path d="M126.273 137.473C126.386 137.473 126.447 137.534 126.447 137.637V138.517C126.447 138.62 126.386 138.681 126.273 138.681H122.68V139.5H125.689C125.791 139.5 125.862 139.56 125.862 139.663V140.492C125.862 140.595 125.796 140.655 125.689 140.655H122.68V141.521H126.273C126.386 141.521 126.447 141.582 126.447 141.685V142.565C126.447 142.668 126.386 142.728 126.273 142.728H121.332C121.22 142.728 121.159 142.668 121.159 142.565V137.632C121.159 137.525 121.22 137.469 121.332 137.469H126.273V137.473Z" fill="white"/>
<path d="M128.3 141.526H131.585C131.697 141.526 131.758 141.587 131.758 141.69V142.569C131.758 142.672 131.697 142.733 131.585 142.733H126.952C126.84 142.733 126.779 142.672 126.779 142.569V137.637C126.779 137.529 126.84 137.473 126.952 137.473H128.117C128.23 137.473 128.3 137.534 128.3 137.637V141.526Z" fill="white"/>
<path d="M137.673 141.535C137.673 142.377 137.298 142.738 136.419 142.738H133.209C132.338 142.738 131.945 142.377 131.945 141.535V138.676C131.945 137.834 132.338 137.473 133.209 137.473H136.419C137.298 137.473 137.673 137.834 137.673 138.676V141.535ZM136.152 139.167C136.152 138.76 136.068 138.685 135.572 138.685H134.037C133.55 138.685 133.457 138.76 133.457 139.167V141.048C133.457 141.456 133.545 141.53 134.037 141.53H135.572C136.068 141.53 136.152 141.456 136.152 141.048V139.167Z" fill="white"/>
<path d="M143.546 138.676V139.93C143.546 140.772 143.171 141.133 142.292 141.133H139.577V142.569C139.577 142.672 139.507 142.733 139.395 142.733H138.23C138.117 142.733 138.057 142.672 138.057 142.569V137.637C138.057 137.529 138.117 137.473 138.23 137.473H142.292C143.171 137.473 143.546 137.834 143.546 138.676ZM139.577 139.925H141.524C141.959 139.925 142.029 139.86 142.029 139.495V139.111C142.029 138.751 141.964 138.681 141.524 138.681H139.577V139.925Z" fill="white"/>
<path d="M146.054 137.473C146.19 137.473 146.274 137.525 146.302 137.632L147.369 141.151L148.436 137.632C148.464 137.529 148.548 137.473 148.684 137.473H150.794C150.907 137.473 150.967 137.534 150.967 137.637V142.569C150.967 142.672 150.907 142.733 150.794 142.733H149.62C149.507 142.733 149.447 142.672 149.447 142.569V138.727L148.221 142.579C148.192 142.686 148.108 142.738 147.973 142.738H146.686C146.55 142.738 146.475 142.686 146.447 142.579L145.207 138.699V142.574C145.207 142.677 145.141 142.738 145.034 142.738H143.981C143.869 142.738 143.808 142.677 143.808 142.574V137.642C143.808 137.534 143.869 137.478 143.981 137.478H146.049L146.054 137.473Z" fill="white"/>
<path d="M156.513 137.473C156.625 137.473 156.686 137.534 156.686 137.637V138.517C156.686 138.62 156.625 138.681 156.513 138.681H152.919V139.5H155.928C156.031 139.5 156.101 139.56 156.101 139.663V140.492C156.101 140.595 156.035 140.655 155.928 140.655H152.919V141.521H156.513C156.625 141.521 156.686 141.582 156.686 141.685V142.565C156.686 142.668 156.625 142.728 156.513 142.728H151.571C151.459 142.728 151.398 142.668 151.398 142.565V137.632C151.398 137.525 151.459 137.469 151.571 137.469H156.513V137.473Z" fill="white"/>
<path d="M160.626 142.738C160.504 142.738 160.429 142.7 160.387 142.602L158.417 138.676V142.569C158.417 142.672 158.352 142.733 158.244 142.733H157.191C157.079 142.733 157.018 142.672 157.018 142.569V137.637C157.018 137.529 157.079 137.473 157.191 137.473H159.171C159.292 137.473 159.367 137.511 159.409 137.609L161.379 141.54V137.637C161.379 137.529 161.445 137.473 161.562 137.473H162.605C162.718 137.473 162.779 137.534 162.779 137.637V142.569C162.779 142.672 162.718 142.733 162.605 142.733H160.626V142.738Z" fill="white"/>
<path d="M164.964 138.685H163.167C163.055 138.685 162.994 138.624 162.994 138.522V137.642C162.994 137.534 163.055 137.478 163.167 137.478H168.282C168.394 137.478 168.455 137.539 168.455 137.642V138.522C168.455 138.624 168.394 138.685 168.282 138.685H166.485V142.574C166.485 142.677 166.419 142.738 166.312 142.738H165.137C165.025 142.738 164.964 142.677 164.964 142.574V138.685Z" fill="white"/>
<path d="M74.7986 132.092C74.8968 132.092 74.9577 132.143 74.9577 132.242V132.391C74.9577 132.761 75.1215 132.934 75.5145 132.934H77.8917C78.5609 132.934 78.6826 132.808 78.6826 132.256V131.844C78.6826 131.296 78.5609 131.165 77.8917 131.165H75.5239C74.7331 131.165 74.3493 130.791 74.3493 130.038V129.392C74.3493 128.638 74.7331 128.264 75.5239 128.264H78.0602C78.9306 128.264 79.2769 128.596 79.2769 129.429V129.551C79.2769 129.649 79.2254 129.701 79.1178 129.701H78.7575C78.6498 129.701 78.5984 129.649 78.5984 129.551V129.401C78.5984 129.031 78.4346 128.858 78.0321 128.858H75.8281C75.1683 128.858 75.0372 128.985 75.0372 129.537V129.897C75.0372 130.445 75.1636 130.576 75.8281 130.576H78.1959C78.9868 130.576 79.3752 130.95 79.3752 131.703V132.401C79.3752 133.154 78.9821 133.528 78.1959 133.528H75.4911C74.6254 133.528 74.2745 133.196 74.2745 132.363V132.242C74.2745 132.143 74.3353 132.092 74.4336 132.092H74.8032H74.7986Z" fill="white"/>
<path d="M80.7182 133.379C80.7182 133.477 80.6667 133.528 80.5591 133.528H80.1847C80.0771 133.528 80.0256 133.477 80.0256 133.379V128.418C80.0256 128.32 80.0771 128.269 80.1847 128.269H80.5591C80.6667 128.269 80.7182 128.32 80.7182 128.418V133.379Z" fill="white"/>
<path d="M83.3527 128.858H81.3827C81.2797 128.858 81.2236 128.807 81.2236 128.709V128.414C81.2236 128.315 81.275 128.264 81.3827 128.264H86.0201C86.1277 128.264 86.1792 128.315 86.1792 128.414V128.709C86.1792 128.807 86.1277 128.858 86.0201 128.858H84.05V133.379C84.05 133.477 83.9892 133.528 83.8909 133.528H83.5072C83.4089 133.528 83.3481 133.477 83.3481 133.379V128.858H83.3527Z" fill="white"/>
<path d="M87.3865 133.379C87.3865 133.477 87.335 133.528 87.2274 133.528H86.8531C86.7454 133.528 86.6939 133.477 86.6939 133.379V128.418C86.6939 128.32 86.7454 128.269 86.8531 128.269H87.2274C87.335 128.269 87.3865 128.32 87.3865 128.418V133.379Z" fill="white"/>
<path d="M93.3389 132.326C93.3389 133.131 92.9271 133.528 92.0848 133.528H89.394C88.5517 133.528 88.1306 133.131 88.1306 132.326V129.467C88.1306 128.662 88.5517 128.264 89.394 128.264H92.0848C92.9271 128.264 93.3389 128.662 93.3389 129.467V132.326ZM92.6416 129.56C92.6416 128.999 92.4919 128.863 91.8133 128.863H89.6467C88.9682 128.863 88.8185 128.999 88.8185 129.56V132.237C88.8185 132.803 88.9682 132.934 89.6467 132.934H91.8133C92.4919 132.934 92.6416 132.798 92.6416 132.237V129.56Z" fill="white"/>
<path d="M100.513 128.264C100.611 128.264 100.672 128.315 100.672 128.414V128.709C100.672 128.807 100.611 128.858 100.513 128.858H96.5444V130.571H99.9183C100.017 130.571 100.077 130.622 100.077 130.721V131.016C100.077 131.114 100.017 131.165 99.9183 131.165H96.5444V132.934H100.513C100.611 132.934 100.672 132.986 100.672 133.084V133.379C100.672 133.477 100.611 133.528 100.513 133.528H96.0109C95.9033 133.528 95.8518 133.477 95.8518 133.379V128.418C95.8518 128.32 95.9033 128.269 96.0109 128.269H100.513V128.264Z" fill="white"/>
<path d="M105.679 133.528C105.557 133.528 105.52 133.505 105.454 133.416L101.987 128.854V133.379C101.987 133.477 101.935 133.528 101.828 133.528H101.472C101.364 133.528 101.313 133.477 101.313 133.379V128.418C101.313 128.32 101.364 128.269 101.472 128.269H102.202C102.314 128.269 102.352 128.297 102.422 128.381L105.894 132.953V128.418C105.894 128.32 105.946 128.269 106.053 128.269H106.404C106.512 128.269 106.563 128.32 106.563 128.418V133.379C106.563 133.477 106.512 133.528 106.404 133.528H105.674H105.679Z" fill="white"/>
<path d="M112.548 128.264C113.554 128.264 114.21 128.882 114.21 129.85V131.942C114.21 132.911 113.554 133.528 112.548 133.528H109.31C109.202 133.528 109.151 133.477 109.151 133.379V128.418C109.151 128.32 109.202 128.269 109.31 128.269H112.548V128.264ZM109.844 132.934H112.183C113.152 132.934 113.522 132.611 113.522 131.797V129.991C113.522 129.176 113.152 128.854 112.183 128.854H109.844V132.934Z" fill="white"/>
<path d="M119.572 128.264C119.671 128.264 119.731 128.315 119.731 128.414V128.709C119.731 128.807 119.671 128.858 119.572 128.858H115.604V130.571H118.978C119.076 130.571 119.137 130.622 119.137 130.721V131.016C119.137 131.114 119.076 131.165 118.978 131.165H115.604V132.934H119.572C119.671 132.934 119.731 132.986 119.731 133.084V133.379C119.731 133.477 119.671 133.528 119.572 133.528H115.071C114.963 133.528 114.912 133.477 114.912 133.379V128.418C114.912 128.32 114.963 128.269 115.071 128.269H119.572V128.264Z" fill="white"/>
<path d="M120.747 132.092C120.845 132.092 120.906 132.143 120.906 132.242V132.391C120.906 132.761 121.07 132.934 121.463 132.934H123.84C124.509 132.934 124.631 132.808 124.631 132.256V131.844C124.631 131.296 124.509 131.165 123.84 131.165H121.472C120.681 131.165 120.298 130.791 120.298 130.038V129.392C120.298 128.638 120.681 128.264 121.472 128.264H124.004C124.874 128.264 125.221 128.596 125.221 129.429V129.551C125.221 129.649 125.169 129.701 125.061 129.701H124.701C124.593 129.701 124.542 129.649 124.542 129.551V129.401C124.542 129.031 124.378 128.858 123.976 128.858H121.772C121.112 128.858 120.981 128.985 120.981 129.537V129.897C120.981 130.445 121.107 130.576 121.772 130.576H124.14C124.93 130.576 125.319 130.95 125.319 131.703V132.401C125.319 133.154 124.93 133.528 124.14 133.528H121.435C120.569 133.528 120.218 133.196 120.218 132.363V132.242C120.218 132.143 120.279 132.092 120.377 132.092H120.747Z" fill="white"/>
<path d="M130.153 132.316H126.807L126.297 133.393C126.25 133.491 126.199 133.528 126.077 133.528H125.665C125.576 133.528 125.543 133.463 125.59 133.379L128.019 128.4C128.066 128.301 128.117 128.264 128.239 128.264H128.763C128.885 128.264 128.936 128.301 128.983 128.4L131.412 133.379C131.458 133.463 131.421 133.528 131.337 133.528H130.892C130.766 133.528 130.719 133.491 130.672 133.393L130.153 132.316ZM127.083 131.736H129.872L128.482 128.826L127.083 131.736Z" fill="white"/>
<path d="M136.952 129.392V130.412C136.952 131.165 136.559 131.54 135.773 131.54H135.254L137.111 133.374C137.177 133.435 137.149 133.524 137.064 133.524H136.522C136.395 133.524 136.334 133.496 136.264 133.425L134.439 131.554H132.614V133.374C132.614 133.472 132.563 133.524 132.455 133.524H132.081C131.978 133.524 131.922 133.472 131.922 133.374V128.414C131.922 128.315 131.973 128.264 132.081 128.264H135.773C136.564 128.264 136.952 128.638 136.952 129.392ZM132.614 130.964H135.441C136.124 130.964 136.255 130.828 136.255 130.267V129.56C136.255 128.999 136.129 128.863 135.441 128.863H132.614V130.969V130.964Z" fill="white"/>
<path d="M142.741 129.392V130.412C142.741 131.165 142.348 131.54 141.562 131.54H141.042L142.9 133.374C142.965 133.435 142.937 133.524 142.853 133.524H142.31C142.184 133.524 142.123 133.496 142.053 133.425L140.228 131.554H138.403V133.374C138.403 133.472 138.351 133.524 138.244 133.524H137.869C137.766 133.524 137.71 133.472 137.71 133.374V128.414C137.71 128.315 137.762 128.264 137.869 128.264H141.562C142.352 128.264 142.741 128.638 142.741 129.392ZM138.403 130.964H141.229C141.912 130.964 142.043 130.828 142.043 130.267V129.56C142.043 128.999 141.917 128.863 141.229 128.863H138.403V130.969V130.964Z" fill="white"/>
<path d="M148.571 132.326C148.571 133.131 148.16 133.528 147.317 133.528H144.627C143.784 133.528 143.363 133.131 143.363 132.326V129.467C143.363 128.662 143.784 128.264 144.627 128.264H147.317C148.16 128.264 148.571 128.662 148.571 129.467V132.326ZM147.874 129.56C147.874 128.999 147.724 128.863 147.046 128.863H144.879C144.201 128.863 144.051 128.999 144.051 129.56V132.237C144.051 132.803 144.201 132.934 144.879 132.934H147.046C147.724 132.934 147.874 132.798 147.874 132.237V129.56Z" fill="white"/>
<path d="M150.013 132.934H153.696C153.794 132.934 153.855 132.986 153.855 133.084V133.379C153.855 133.477 153.794 133.528 153.696 133.528H149.479C149.376 133.528 149.32 133.477 149.32 133.379V128.418C149.32 128.32 149.372 128.269 149.479 128.269H149.854C149.957 128.269 150.013 128.32 150.013 128.418V132.939V132.934Z" fill="white"/>
<path d="M155.057 132.934H158.74C158.838 132.934 158.899 132.986 158.899 133.084V133.379C158.899 133.477 158.838 133.528 158.74 133.528H154.524C154.421 133.528 154.365 133.477 154.365 133.379V128.418C154.365 128.32 154.416 128.269 154.524 128.269H154.898C155.001 128.269 155.057 128.32 155.057 128.418V132.939V132.934Z" fill="white"/>
<path d="M164.538 132.326C164.538 133.131 164.126 133.528 163.284 133.528H160.593C159.751 133.528 159.33 133.131 159.33 132.326V129.467C159.33 128.662 159.751 128.264 160.593 128.264H163.284C164.126 128.264 164.538 128.662 164.538 129.467V132.326ZM163.841 129.56C163.841 128.999 163.691 128.863 163.012 128.863H160.846C160.167 128.863 160.018 128.999 160.018 129.56V132.237C160.018 132.803 160.167 132.934 160.846 132.934H163.012C163.691 132.934 163.841 132.798 163.841 132.237V129.56Z" fill="white"/>
<path d="M108.491 103.28C108.491 101.899 109.38 101.109 110.859 101.109H127.144C128.623 101.109 129.512 101.899 129.512 103.28V115.026C129.512 116.406 128.623 117.197 127.144 117.197H110.859C109.38 117.197 108.491 116.406 108.491 115.026V103.28ZM126.358 48.1082C127.836 48.1082 128.627 48.899 128.627 50.2795V76.1386C128.627 77.5191 128.431 79.1007 128.136 80.3829L125.075 93.6073C124.781 94.8895 123.892 95.6803 122.511 95.6803H115.501C114.121 95.6803 113.232 94.8895 112.937 93.6073L109.876 80.3829C109.582 79.1007 109.385 77.5191 109.385 76.1386V50.2795C109.385 48.899 110.176 48.1082 111.655 48.1082H126.362H126.358Z" fill="#F2F2F2"/>
<path d="M12.107 248.349C19.877 248.349 22.367 246.309 22.307 239.619L17.837 239.499C17.837 243.129 16.907 244.299 12.167 244.299C7.57695 244.299 6.37695 243.009 6.37695 237.399V237.159C6.37695 231.669 7.57695 230.289 12.167 230.289C16.937 230.289 17.807 231.399 17.807 235.059L22.277 234.939C22.337 228.159 19.877 226.209 12.107 226.209C4.36695 226.209 1.72695 228.699 1.72695 236.799V237.759C1.72695 245.829 4.36695 248.349 12.107 248.349ZM35.5194 248.349C43.4694 248.349 46.0794 245.829 46.0794 237.759V236.799C46.0794 228.699 43.4694 226.209 35.5194 226.209C27.5994 226.209 24.9594 228.699 24.9594 236.799V237.759C24.9594 245.829 27.5994 248.349 35.5194 248.349ZM35.5194 244.299C30.8094 244.299 29.6094 243.009 29.6094 237.399V237.159C29.6094 231.669 30.8094 230.289 35.5194 230.289C40.2594 230.289 41.4294 231.549 41.4294 237.159V237.399C41.4294 243.009 40.2594 244.299 35.5194 244.299ZM49.8277 247.929H54.2677C54.2377 245.529 54.2377 242.679 54.2377 240.579C54.2377 237.609 54.2077 233.439 54.1777 230.589H54.5377C55.3177 232.989 56.2777 236.019 57.2377 238.929L60.3277 247.929H64.7377L67.7077 238.929C68.6377 236.049 69.5677 233.019 70.3177 230.589H70.6777C70.6477 233.799 70.6177 238.509 70.6177 240.399C70.6177 242.799 70.6177 245.559 70.5877 247.929H75.1777C75.1477 246.699 75.1477 245.439 75.1477 243.759V230.349C75.1477 228.879 75.1477 227.739 75.1777 226.629H67.7977L64.9777 235.509C64.1677 238.179 63.3877 240.969 62.7277 243.249C62.0977 240.969 61.3177 238.209 60.5077 235.539L57.6577 226.629H49.8277C49.8577 227.769 49.8577 228.909 49.8577 230.499V243.759C49.8577 245.469 49.8577 246.549 49.8277 247.929ZM79.9749 243.789C79.9749 245.499 79.9749 246.729 79.9449 247.929H84.6549C84.6249 246.699 84.6249 245.499 84.6249 243.789V230.499C84.6249 228.939 84.6249 227.769 84.6549 226.629H79.9449C79.9749 227.769 79.9749 228.939 79.9749 230.499V243.789ZM89.4664 247.929H93.7564C93.7264 245.529 93.7264 242.409 93.7264 240.309C93.7264 237.819 93.6664 233.559 93.6364 230.649H93.8764C95.0464 233.199 96.4864 236.229 98.0464 239.589L102.186 247.929H109.206C109.176 246.549 109.176 245.469 109.176 243.759V230.439C109.176 228.909 109.176 227.739 109.206 226.629H104.886C104.916 228.999 104.916 232.149 104.916 234.429C104.916 236.259 104.976 240.669 105.006 243.849H104.706C103.716 241.599 102.186 238.119 100.686 234.819L96.6364 226.629H89.4664C89.4964 227.919 89.4964 228.909 89.4964 230.499V243.849C89.4964 245.529 89.4964 246.579 89.4664 247.929ZM123.348 248.349C131.178 248.349 133.518 246.729 133.518 239.589C133.518 238.839 133.518 237.699 133.548 236.709H121.848V240.189H129.138V240.219C129.168 243.729 128.298 244.389 123.438 244.389C118.788 244.389 117.588 243.099 117.588 237.399V237.159C117.588 231.669 118.788 230.289 123.468 230.289C128.148 230.289 129.018 231.099 129.018 233.829H129.048L133.488 233.739C133.548 227.889 131.118 226.209 123.318 226.209C115.578 226.209 112.938 228.699 112.938 236.799V237.759C112.938 245.829 115.578 248.349 123.348 248.349ZM154.865 248.349C162.485 248.349 164.255 246.489 164.255 241.839C164.255 237.759 162.695 235.989 155.405 235.119C150.065 234.489 149.435 233.979 149.435 232.299C149.435 230.709 150.215 230.019 154.025 230.019C158.075 230.019 159.065 230.619 159.065 232.389V233.049L163.535 232.959V232.569C163.535 228.069 162.035 226.209 153.995 226.209C146.825 226.209 144.815 228.219 144.815 232.569C144.815 236.799 146.315 238.179 153.425 239.049C158.975 239.709 159.725 240.429 159.725 242.109C159.725 243.909 159.005 244.509 154.805 244.509C150.065 244.509 149.165 244.059 149.165 241.869V241.179L144.635 241.299V241.689C144.635 247.059 146.585 248.349 154.865 248.349ZM177.375 248.349C185.325 248.349 187.935 245.829 187.935 237.759V236.799C187.935 228.699 185.325 226.209 177.375 226.209C169.455 226.209 166.815 228.699 166.815 236.799V237.759C166.815 245.829 169.455 248.349 177.375 248.349ZM177.375 244.299C172.665 244.299 171.465 243.009 171.465 237.399V237.159C171.465 231.669 172.665 230.289 177.375 230.289C182.115 230.289 183.285 231.549 183.285 237.159V237.399C183.285 243.009 182.115 244.299 177.375 244.299ZM201.193 248.349C209.143 248.349 211.753 245.829 211.753 237.759V236.799C211.753 228.699 209.143 226.209 201.193 226.209C193.273 226.209 190.633 228.699 190.633 236.799V237.759C190.633 245.829 193.273 248.349 201.193 248.349ZM201.193 244.299C196.483 244.299 195.283 243.009 195.283 237.399V237.159C195.283 231.669 196.483 230.289 201.193 230.289C205.933 230.289 207.103 231.549 207.103 237.159V237.399C207.103 243.009 205.933 244.299 201.193 244.299ZM215.502 247.929H219.792C219.762 245.529 219.762 242.409 219.762 240.309C219.762 237.819 219.702 233.559 219.672 230.649H219.912C221.082 233.199 222.522 236.229 224.082 239.589L228.222 247.929H235.242C235.212 246.549 235.212 245.469 235.212 243.759V230.439C235.212 228.909 235.212 227.739 235.242 226.629H230.922C230.952 228.999 230.952 232.149 230.952 234.429C230.952 236.259 231.012 240.669 231.042 243.849H230.742C229.752 241.599 228.222 238.119 226.722 234.819L222.672 226.629H215.502C215.532 227.919 215.532 228.909 215.532 230.499V243.849C215.532 245.529 215.532 246.579 215.502 247.929Z" fill="white"/>
</g>
<defs>
<clipPath id="clip0_65_4861">
<rect width="238" height="252.894" fill="white" transform="translate(0 0.0352783)"/>
</clipPath>
</defs>
</svg>
